# MagicaVoxel @ Ephtracy

# material
mtllib hanging locker.mtl
usemtl palette

# normals
vn -1 0 0
vn 1 0 0
vn 0 0 1
vn 0 0 -1
vn 0 -1 0
vn 0 1 0

# texcoords
vt 0.537109 0.5
vt 0.974609 0.5
vt 0.986328 0.5

# verts
v -3 0 6.5
v -3 0 -6.5
v -3 9 6.5
v -3 9 -6.5
v 2 1 5.5
v 2 1 0.5
v 2 1 -0.5
v 2 1 -5.5
v 2 4 5.5
v 2 4 0.5
v 2 4 -0.5
v 2 4 -5.5
v 2 5 5.5
v 2 5 0.5
v 2 5 -0.5
v 2 5 -5.5
v 2 7 5.5
v 2 7 0.5
v 2 7 -0.5
v 2 7 -5.5
v -2 1 5.5
v -2 1 -5.5
v -2 4 5.5
v -2 4 -5.5
v -2 5 5.5
v -2 5 -5.5
v -2 7 5.5
v -2 7 -5.5
v 3 0 6.5
v 3 0 -6.5
v 3 1 5.5
v 3 1 0.5
v 3 1 -0.5
v 3 1 -5.5
v 3 4 2.5
v 3 4 1.5
v 3 4 -1.5
v 3 4 -2.5
v 3 5 2.5
v 3 5 1.5
v 3 5 -1.5
v 3 5 -2.5
v 3 8 5.5
v 3 8 0.5
v 3 8 -0.5
v 3 8 -5.5
v 3 9 6.5
v 3 9 -6.5
v -3 0 6.5
v -3 9 6.5
v 3 0 6.5
v 3 9 6.5
v -2 1 -5.5
v -2 4 -5.5
v -2 5 -5.5
v -2 7 -5.5
v 2 1 -5.5
v 2 4 -5.5
v 2 5 -5.5
v 2 7 -5.5
v -2 1 5.5
v -2 4 5.5
v -2 5 5.5
v -2 7 5.5
v 2 1 5.5
v 2 4 5.5
v 2 5 5.5
v 2 7 5.5
v -3 0 -6.5
v -3 9 -6.5
v 3 0 -6.5
v 3 9 -6.5
v -3 0 6.5
v 3 0 6.5
v -3 0 -6.5
v 3 0 -6.5
v -2 4 5.5
v 2 4 5.5
v 2 4 0.5
v 2 4 -0.5
v -2 4 -5.5
v 2 4 -5.5
v -2 7 5.5
v 2 7 5.5
v 2 7 0.5
v 2 7 -0.5
v -2 7 -5.5
v 2 7 -5.5
v -2 1 5.5
v 2 1 5.5
v 2 1 0.5
v 2 1 -0.5
v -2 1 -5.5
v 2 1 -5.5
v -2 5 5.5
v 2 5 5.5
v 2 5 0.5
v 2 5 -0.5
v -2 5 -5.5
v 2 5 -5.5
v -3 9 6.5
v 3 9 6.5
v -3 9 -6.5
v 3 9 -6.5

# faces
f 3/1/1 2/1/1 1/1/1
f 4/1/1 2/1/1 3/1/1
f 9/2/1 6/2/1 5/2/1
f 10/1/1 7/1/1 6/1/1
f 10/2/1 6/2/1 9/2/1
f 11/2/1 8/2/1 7/2/1
f 11/1/1 7/1/1 10/1/1
f 12/2/1 8/2/1 11/2/1
f 17/2/1 14/2/1 13/2/1
f 18/1/1 15/1/1 14/1/1
f 18/2/1 14/2/1 17/2/1
f 19/2/1 16/2/1 15/2/1
f 19/1/1 15/1/1 18/1/1
f 20/2/1 16/2/1 19/2/1
f 21/1/2 22/1/2 23/1/2
f 23/1/2 22/1/2 24/1/2
f 25/1/2 26/1/2 27/1/2
f 27/1/2 26/1/2 28/1/2
f 29/1/2 30/1/2 31/1/2
f 31/1/2 30/1/2 32/1/2
f 32/1/2 30/1/2 33/1/2
f 33/1/2 30/1/2 34/1/2
f 31/2/2 32/2/2 35/2/2
f 35/2/2 32/2/2 36/2/2
f 33/2/2 34/2/2 37/2/2
f 37/2/2 34/2/2 38/2/2
f 31/2/2 35/2/2 39/2/2
f 35/3/2 36/3/2 39/3/2
f 36/2/2 32/2/2 40/2/2
f 39/3/2 36/3/2 40/3/2
f 37/3/2 38/3/2 41/3/2
f 33/2/2 37/2/2 41/2/2
f 38/2/2 34/2/2 42/2/2
f 41/3/2 38/3/2 42/3/2
f 29/1/2 31/1/2 43/1/2
f 31/2/2 39/2/2 43/2/2
f 39/2/2 40/2/2 43/2/2
f 32/1/2 33/1/2 44/1/2
f 43/2/2 40/2/2 44/2/2
f 40/2/2 32/2/2 44/2/2
f 41/2/2 42/2/2 45/2/2
f 44/1/2 33/1/2 45/1/2
f 33/2/2 41/2/2 45/2/2
f 42/2/2 34/2/2 46/2/2
f 45/2/2 42/2/2 46/2/2
f 34/1/2 30/1/2 46/1/2
f 44/1/2 45/1/2 47/1/2
f 43/1/2 44/1/2 47/1/2
f 45/1/2 46/1/2 47/1/2
f 29/1/2 43/1/2 47/1/2
f 46/1/2 30/1/2 48/1/2
f 47/1/2 46/1/2 48/1/2
f 51/1/3 50/1/3 49/1/3
f 52/1/3 50/1/3 51/1/3
f 57/1/3 54/1/3 53/1/3
f 58/1/3 54/1/3 57/1/3
f 59/1/3 56/1/3 55/1/3
f 60/1/3 56/1/3 59/1/3
f 61/1/4 62/1/4 65/1/4
f 65/1/4 62/1/4 66/1/4
f 63/1/4 64/1/4 67/1/4
f 67/1/4 64/1/4 68/1/4
f 69/1/4 70/1/4 71/1/4
f 71/1/4 70/1/4 72/1/4
f 75/1/5 74/1/5 73/1/5
f 76/1/5 74/1/5 75/1/5
f 79/1/5 78/1/5 77/1/5
f 80/1/5 79/1/5 77/1/5
f 81/1/5 80/1/5 77/1/5
f 82/1/5 80/1/5 81/1/5
f 85/1/5 84/1/5 83/1/5
f 86/1/5 85/1/5 83/1/5
f 87/1/5 86/1/5 83/1/5
f 88/1/5 86/1/5 87/1/5
f 89/1/6 90/1/6 91/1/6
f 89/1/6 91/1/6 92/1/6
f 89/1/6 92/1/6 93/1/6
f 93/1/6 92/1/6 94/1/6
f 95/1/6 96/1/6 97/1/6
f 95/1/6 97/1/6 98/1/6
f 95/1/6 98/1/6 99/1/6
f 99/1/6 98/1/6 100/1/6
f 101/1/6 102/1/6 103/1/6
f 103/1/6 102/1/6 104/1/6
