# MagicaVoxel @ Ephtracy

# material
mtllib lamp.mtl
usemtl palette

# normals
vn -1 0 0
vn 1 0 0
vn 0 0 1
vn 0 0 -1
vn 0 -1 0
vn 0 1 0

# texcoords
vt 0.0253906 0.5
vt 0.810547 0.5
vt 0.974609 0.5

# verts
v -2.5 1 1.5
v -2.5 1 -1.5
v -2.5 5 1.5
v -2.5 5 -1.5
v -2.5 8 1.5
v -2.5 8 -1.5
v -2.5 11 1.5
v -2.5 11 -1.5
v -1.5 0 1.5
v -1.5 0 -1.5
v -1.5 1 2.5
v -1.5 1 1.5
v -1.5 1 -1.5
v -1.5 1 -2.5
v -1.5 5 2.5
v -1.5 5 1.5
v -1.5 5 0.5
v -1.5 5 -0.5
v -1.5 5 -1.5
v -1.5 5 -2.5
v -1.5 6 0.5
v -1.5 6 -0.5
v -1.5 8 2.5
v -1.5 8 1.5
v -1.5 8 -1.5
v -1.5 8 -2.5
v -1.5 11 2.5
v -1.5 11 1.5
v -1.5 11 -1.5
v -1.5 11 -2.5
v -1.5 12 1.5
v -1.5 12 -1.5
v -0.5 5 1.5
v -0.5 5 0.5
v -0.5 5 -0.5
v -0.5 5 -1.5
v -0.5 6 1.5
v -0.5 6 0.5
v -0.5 6 -0.5
v -0.5 6 -1.5
v -0.5 9 0.5
v -0.5 9 -0.5
v -0.5 10 0.5
v -0.5 10 -0.5
v 0.5 9 -0.5
v 0.5 9 -1.5
v 0.5 10 -0.5
v 0.5 10 -1.5
v 1.5 8 1.5
v 1.5 8 -1.5
v 1.5 9 1.5
v 1.5 9 0.5
v 1.5 9 -0.5
v 1.5 9 -1.5
v 1.5 10 0.5
v 1.5 10 -0.5
v -1.5 8 1.5
v -1.5 8 -1.5
v -1.5 9 1.5
v -1.5 9 0.5
v -1.5 9 -0.5
v -1.5 9 -1.5
v -1.5 10 0.5
v -1.5 10 -0.5
v -0.5 9 -0.5
v -0.5 9 -1.5
v -0.5 10 -0.5
v -0.5 10 -1.5
v 0.5 5 1.5
v 0.5 5 0.5
v 0.5 5 -0.5
v 0.5 5 -1.5
v 0.5 6 1.5
v 0.5 6 0.5
v 0.5 6 -0.5
v 0.5 6 -1.5
v 0.5 9 0.5
v 0.5 9 -0.5
v 0.5 10 0.5
v 0.5 10 -0.5
v 1.5 0 1.5
v 1.5 0 -1.5
v 1.5 1 2.5
v 1.5 1 1.5
v 1.5 1 -1.5
v 1.5 1 -2.5
v 1.5 5 2.5
v 1.5 5 1.5
v 1.5 5 0.5
v 1.5 5 -0.5
v 1.5 5 -1.5
v 1.5 5 -2.5
v 1.5 6 0.5
v 1.5 6 -0.5
v 1.5 8 2.5
v 1.5 8 1.5
v 1.5 8 -1.5
v 1.5 8 -2.5
v 1.5 11 2.5
v 1.5 11 1.5
v 1.5 11 -1.5
v 1.5 11 -2.5
v 1.5 12 1.5
v 1.5 12 -1.5
v 2.5 1 1.5
v 2.5 1 -1.5
v 2.5 5 1.5
v 2.5 5 -1.5
v 2.5 8 1.5
v 2.5 8 -1.5
v 2.5 11 1.5
v 2.5 11 -1.5
v -1.5 1 2.5
v -1.5 5 2.5
v -1.5 8 2.5
v -1.5 11 2.5
v 1.5 1 2.5
v 1.5 5 2.5
v 1.5 8 2.5
v 1.5 11 2.5
v -2.5 1 1.5
v -2.5 5 1.5
v -2.5 8 1.5
v -2.5 11 1.5
v -1.5 0 1.5
v -1.5 1 1.5
v -1.5 5 1.5
v -1.5 8 1.5
v -1.5 11 1.5
v -1.5 12 1.5
v -0.5 5 1.5
v -0.5 6 1.5
v 0.5 5 1.5
v 0.5 6 1.5
v 1.5 0 1.5
v 1.5 1 1.5
v 1.5 5 1.5
v 1.5 8 1.5
v 1.5 11 1.5
v 1.5 12 1.5
v 2.5 1 1.5
v 2.5 5 1.5
v 2.5 8 1.5
v 2.5 11 1.5
v -1.5 5 0.5
v -1.5 6 0.5
v -0.5 5 0.5
v -0.5 6 0.5
v -0.5 9 0.5
v 0.5 5 0.5
v 0.5 6 0.5
v 0.5 9 0.5
v 1.5 5 0.5
v 1.5 6 0.5
v -1.5 9 -0.5
v -1.5 10 -0.5
v -0.5 9 -0.5
v -0.5 10 -0.5
v 0.5 9 -0.5
v 0.5 10 -0.5
v 1.5 9 -0.5
v 1.5 10 -0.5
v -1.5 8 -1.5
v -1.5 9 -1.5
v -0.5 9 -1.5
v -0.5 10 -1.5
v 0.5 9 -1.5
v 0.5 10 -1.5
v 1.5 8 -1.5
v 1.5 9 -1.5
v -1.5 8 1.5
v -1.5 9 1.5
v -0.5 9 1.5
v 0.5 9 1.5
v 1.5 8 1.5
v 1.5 9 1.5
v -1.5 9 0.5
v -1.5 10 0.5
v -0.5 9 0.5
v -0.5 10 0.5
v 0.5 9 0.5
v 0.5 10 0.5
v 1.5 9 0.5
v 1.5 10 0.5
v -1.5 5 -0.5
v -1.5 6 -0.5
v -0.5 5 -0.5
v -0.5 6 -0.5
v -0.5 9 -0.5
v -0.5 10 -0.5
v 0.5 5 -0.5
v 0.5 6 -0.5
v 0.5 9 -0.5
v 0.5 10 -0.5
v 1.5 5 -0.5
v 1.5 6 -0.5
v -2.5 1 -1.5
v -2.5 5 -1.5
v -2.5 8 -1.5
v -2.5 11 -1.5
v -1.5 0 -1.5
v -1.5 1 -1.5
v -1.5 5 -1.5
v -1.5 8 -1.5
v -1.5 11 -1.5
v -1.5 12 -1.5
v -0.5 5 -1.5
v -0.5 6 -1.5
v 0.5 5 -1.5
v 0.5 6 -1.5
v 1.5 0 -1.5
v 1.5 1 -1.5
v 1.5 5 -1.5
v 1.5 8 -1.5
v 1.5 11 -1.5
v 1.5 12 -1.5
v 2.5 1 -1.5
v 2.5 5 -1.5
v 2.5 8 -1.5
v 2.5 11 -1.5
v -1.5 1 -2.5
v -1.5 5 -2.5
v -1.5 8 -2.5
v -1.5 11 -2.5
v 1.5 1 -2.5
v 1.5 5 -2.5
v 1.5 8 -2.5
v 1.5 11 -2.5
v -1.5 0 1.5
v 1.5 0 1.5
v -1.5 0 -1.5
v 1.5 0 -1.5
v -1.5 1 2.5
v 1.5 1 2.5
v -2.5 1 1.5
v -1.5 1 1.5
v 1.5 1 1.5
v 2.5 1 1.5
v -2.5 1 -1.5
v -1.5 1 -1.5
v 1.5 1 -1.5
v 2.5 1 -1.5
v -1.5 1 -2.5
v 1.5 1 -2.5
v -1.5 8 2.5
v 1.5 8 2.5
v -2.5 8 1.5
v -1.5 8 1.5
v 1.5 8 1.5
v 2.5 8 1.5
v -2.5 8 -1.5
v -1.5 8 -1.5
v 1.5 8 -1.5
v 2.5 8 -1.5
v -1.5 8 -2.5
v 1.5 8 -2.5
v -1.5 9 1.5
v -0.5 9 1.5
v 0.5 9 1.5
v 1.5 9 1.5
v -1.5 9 0.5
v -0.5 9 0.5
v 0.5 9 0.5
v 1.5 9 0.5
v -1.5 9 -0.5
v -0.5 9 -0.5
v 0.5 9 -0.5
v 1.5 9 -0.5
v -1.5 9 -1.5
v -0.5 9 -1.5
v 0.5 9 -1.5
v 1.5 9 -1.5
v -1.5 10 0.5
v -0.5 10 0.5
v 0.5 10 0.5
v 1.5 10 0.5
v -1.5 10 -0.5
v -0.5 10 -0.5
v 0.5 10 -0.5
v 1.5 10 -0.5
v -0.5 10 -1.5
v 0.5 10 -1.5
v -1.5 5 2.5
v 1.5 5 2.5
v -2.5 5 1.5
v -1.5 5 1.5
v -0.5 5 1.5
v 0.5 5 1.5
v 1.5 5 1.5
v 2.5 5 1.5
v -1.5 5 0.5
v -0.5 5 0.5
v 0.5 5 0.5
v 1.5 5 0.5
v -1.5 5 -0.5
v -0.5 5 -0.5
v 0.5 5 -0.5
v 1.5 5 -0.5
v -2.5 5 -1.5
v -1.5 5 -1.5
v -0.5 5 -1.5
v 0.5 5 -1.5
v 1.5 5 -1.5
v 2.5 5 -1.5
v -1.5 5 -2.5
v 1.5 5 -2.5
v -0.5 6 1.5
v 0.5 6 1.5
v -1.5 6 0.5
v -0.5 6 0.5
v 0.5 6 0.5
v 1.5 6 0.5
v -1.5 6 -0.5
v -0.5 6 -0.5
v 0.5 6 -0.5
v 1.5 6 -0.5
v -0.5 6 -1.5
v 0.5 6 -1.5
v -1.5 11 2.5
v 1.5 11 2.5
v -2.5 11 1.5
v -1.5 11 1.5
v 1.5 11 1.5
v 2.5 11 1.5
v -2.5 11 -1.5
v -1.5 11 -1.5
v 1.5 11 -1.5
v 2.5 11 -1.5
v -1.5 11 -2.5
v 1.5 11 -2.5
v -1.5 12 1.5
v 1.5 12 1.5
v -1.5 12 -1.5
v 1.5 12 -1.5

# faces
f 3/2/1 2/2/1 1/2/1
f 4/2/1 2/2/1 3/2/1
f 7/1/1 6/1/1 5/1/1
f 8/1/1 6/1/1 7/1/1
f 12/2/1 10/2/1 9/2/1
f 13/2/1 10/2/1 12/2/1
f 15/2/1 12/2/1 11/2/1
f 16/2/1 12/2/1 15/2/1
f 19/2/1 14/2/1 13/2/1
f 20/2/1 14/2/1 19/2/1
f 21/2/1 18/2/1 17/2/1
f 22/2/1 18/2/1 21/2/1
f 27/1/1 24/1/1 23/1/1
f 28/1/1 24/1/1 27/1/1
f 29/1/1 26/1/1 25/1/1
f 30/1/1 26/1/1 29/1/1
f 31/1/1 29/1/1 28/1/1
f 32/1/1 29/1/1 31/1/1
f 37/2/1 34/2/1 33/2/1
f 38/2/1 34/2/1 37/2/1
f 39/2/1 36/2/1 35/2/1
f 40/2/1 36/2/1 39/2/1
f 41/3/1 39/3/1 38/3/1
f 42/3/1 39/3/1 41/3/1
f 43/3/1 42/3/1 41/3/1
f 44/3/1 42/3/1 43/3/1
f 47/1/1 46/1/1 45/1/1
f 48/1/1 46/1/1 47/1/1
f 51/1/1 50/1/1 49/1/1
f 52/1/1 50/1/1 51/1/1
f 53/1/1 50/1/1 52/1/1
f 54/1/1 50/1/1 53/1/1
f 55/1/1 53/1/1 52/1/1
f 56/1/1 53/1/1 55/1/1
f 57/1/2 58/1/2 59/1/2
f 59/1/2 58/1/2 60/1/2
f 60/1/2 58/1/2 61/1/2
f 61/1/2 58/1/2 62/1/2
f 60/1/2 61/1/2 63/1/2
f 63/1/2 61/1/2 64/1/2
f 65/1/2 66/1/2 67/1/2
f 67/1/2 66/1/2 68/1/2
f 69/2/2 70/2/2 73/2/2
f 73/2/2 70/2/2 74/2/2
f 71/2/2 72/2/2 75/2/2
f 75/2/2 72/2/2 76/2/2
f 74/3/2 75/3/2 77/3/2
f 77/3/2 75/3/2 78/3/2
f 77/3/2 78/3/2 79/3/2
f 79/3/2 78/3/2 80/3/2
f 81/2/2 82/2/2 84/2/2
f 84/2/2 82/2/2 85/2/2
f 83/2/2 84/2/2 87/2/2
f 87/2/2 84/2/2 88/2/2
f 85/2/2 86/2/2 91/2/2
f 91/2/2 86/2/2 92/2/2
f 89/2/2 90/2/2 93/2/2
f 93/2/2 90/2/2 94/2/2
f 95/1/2 96/1/2 99/1/2
f 99/1/2 96/1/2 100/1/2
f 97/1/2 98/1/2 101/1/2
f 101/1/2 98/1/2 102/1/2
f 100/1/2 101/1/2 103/1/2
f 103/1/2 101/1/2 104/1/2
f 105/2/2 106/2/2 107/2/2
f 107/2/2 106/2/2 108/2/2
f 109/1/2 110/1/2 111/1/2
f 111/1/2 110/1/2 112/1/2
f 117/2/3 114/2/3 113/2/3
f 118/2/3 114/2/3 117/2/3
f 119/1/3 116/1/3 115/1/3
f 120/1/3 116/1/3 119/1/3
f 126/2/3 122/2/3 121/2/3
f 127/2/3 122/2/3 126/2/3
f 128/1/3 124/1/3 123/1/3
f 129/1/3 124/1/3 128/1/3
f 133/2/3 132/2/3 131/2/3
f 134/2/3 132/2/3 133/2/3
f 135/2/3 126/2/3 125/2/3
f 136/2/3 126/2/3 135/2/3
f 139/1/3 130/1/3 129/1/3
f 140/1/3 130/1/3 139/1/3
f 141/2/3 137/2/3 136/2/3
f 142/2/3 137/2/3 141/2/3
f 143/1/3 139/1/3 138/1/3
f 144/1/3 139/1/3 143/1/3
f 147/2/3 146/2/3 145/2/3
f 148/2/3 146/2/3 147/2/3
f 151/3/3 149/3/3 148/3/3
f 152/3/3 149/3/3 151/3/3
f 153/2/3 151/2/3 150/2/3
f 154/2/3 151/2/3 153/2/3
f 157/1/3 156/1/3 155/1/3
f 158/1/3 156/1/3 157/1/3
f 161/1/3 160/1/3 159/1/3
f 162/1/3 160/1/3 161/1/3
f 165/1/3 164/1/3 163/1/3
f 167/1/3 165/1/3 163/1/3
f 167/1/3 166/1/3 165/1/3
f 168/1/3 166/1/3 167/1/3
f 169/1/3 167/1/3 163/1/3
f 170/1/3 167/1/3 169/1/3
f 171/1/4 172/1/4 173/1/4
f 171/1/4 173/1/4 174/1/4
f 171/1/4 174/1/4 175/1/4
f 175/1/4 174/1/4 176/1/4
f 177/1/4 178/1/4 179/1/4
f 179/1/4 178/1/4 180/1/4
f 181/1/4 182/1/4 183/1/4
f 183/1/4 182/1/4 184/1/4
f 185/2/4 186/2/4 187/2/4
f 187/2/4 186/2/4 188/2/4
f 189/3/4 190/3/4 192/3/4
f 188/3/4 189/3/4 192/3/4
f 192/3/4 190/3/4 193/3/4
f 193/3/4 190/3/4 194/3/4
f 191/2/4 192/2/4 195/2/4
f 195/2/4 192/2/4 196/2/4
f 197/2/4 198/2/4 202/2/4
f 202/2/4 198/2/4 203/2/4
f 199/1/4 200/1/4 204/1/4
f 204/1/4 200/1/4 205/1/4
f 207/2/4 208/2/4 209/2/4
f 209/2/4 208/2/4 210/2/4
f 201/2/4 202/2/4 211/2/4
f 211/2/4 202/2/4 212/2/4
f 205/1/4 206/1/4 215/1/4
f 215/1/4 206/1/4 216/1/4
f 212/2/4 213/2/4 217/2/4
f 217/2/4 213/2/4 218/2/4
f 214/1/4 215/1/4 219/1/4
f 219/1/4 215/1/4 220/1/4
f 221/2/4 222/2/4 225/2/4
f 225/2/4 222/2/4 226/2/4
f 223/1/4 224/1/4 227/1/4
f 227/1/4 224/1/4 228/1/4
f 231/2/5 230/2/5 229/2/5
f 232/2/5 230/2/5 231/2/5
f 236/2/5 234/2/5 233/2/5
f 237/2/5 234/2/5 236/2/5
f 239/2/5 236/2/5 235/2/5
f 240/2/5 236/2/5 239/2/5
f 241/2/5 238/2/5 237/2/5
f 242/2/5 238/2/5 241/2/5
f 243/2/5 241/2/5 240/2/5
f 244/2/5 241/2/5 243/2/5
f 248/1/5 246/1/5 245/1/5
f 249/1/5 246/1/5 248/1/5
f 251/1/5 248/1/5 247/1/5
f 252/1/5 248/1/5 251/1/5
f 253/1/5 250/1/5 249/1/5
f 254/1/5 250/1/5 253/1/5
f 255/1/5 253/1/5 252/1/5
f 256/1/5 253/1/5 255/1/5
f 261/1/5 258/1/5 257/1/5
f 262/3/5 259/3/5 258/3/5
f 262/1/5 258/1/5 261/1/5
f 263/1/5 260/1/5 259/1/5
f 263/3/5 259/3/5 262/3/5
f 264/1/5 260/1/5 263/1/5
f 269/1/5 266/1/5 265/1/5
f 270/1/5 266/1/5 269/1/5
f 271/1/5 268/1/5 267/1/5
f 272/1/5 268/1/5 271/1/5
f 277/1/5 274/1/5 273/1/5
f 278/1/5 274/1/5 277/1/5
f 279/1/5 276/1/5 275/1/5
f 280/1/5 276/1/5 279/1/5
f 281/1/5 279/1/5 278/1/5
f 282/1/5 279/1/5 281/1/5
f 283/2/6 284/2/6 286/2/6
f 286/2/6 284/2/6 287/2/6
f 287/2/6 284/2/6 288/2/6
f 288/2/6 284/2/6 289/2/6
f 285/2/6 286/2/6 291/2/6
f 286/2/6 287/2/6 291/2/6
f 291/2/6 287/2/6 292/2/6
f 289/2/6 290/2/6 293/2/6
f 288/2/6 289/2/6 293/2/6
f 293/2/6 290/2/6 294/2/6
f 285/2/6 291/2/6 295/2/6
f 294/2/6 290/2/6 298/2/6
f 295/2/6 296/2/6 299/2/6
f 285/2/6 295/2/6 299/2/6
f 299/2/6 296/2/6 300/2/6
f 300/2/6 296/2/6 301/2/6
f 297/2/6 298/2/6 302/2/6
f 298/2/6 290/2/6 303/2/6
f 302/2/6 298/2/6 303/2/6
f 303/2/6 290/2/6 304/2/6
f 300/2/6 301/2/6 305/2/6
f 301/2/6 302/2/6 305/2/6
f 302/2/6 303/2/6 305/2/6
f 305/2/6 303/2/6 306/2/6
f 307/2/6 308/2/6 310/2/6
f 310/2/6 308/2/6 311/2/6
f 309/2/6 310/2/6 313/2/6
f 313/2/6 310/2/6 314/2/6
f 311/2/6 312/2/6 315/2/6
f 315/2/6 312/2/6 316/2/6
f 314/2/6 315/2/6 317/2/6
f 317/2/6 315/2/6 318/2/6
f 319/1/6 320/1/6 322/1/6
f 322/1/6 320/1/6 323/1/6
f 321/1/6 322/1/6 325/1/6
f 325/1/6 322/1/6 326/1/6
f 323/1/6 324/1/6 327/1/6
f 327/1/6 324/1/6 328/1/6
f 326/1/6 327/1/6 329/1/6
f 329/1/6 327/1/6 330/1/6
f 331/1/6 332/1/6 333/1/6
f 333/1/6 332/1/6 334/1/6
