# MagicaVoxel @ Ephtracy

# material
mtllib Cup.mtl
usemtl palette

# normals
vn -1 0 0
vn 1 0 0
vn 0 0 1
vn 0 0 -1
vn 0 -1 0
vn 0 1 0

# texcoords
vt 0.990234 0.5

# verts
v -2.5 1 0.5
v -2.5 1 -2.5
v -2.5 4 0.5
v -2.5 4 -2.5
v -1.5 0 0.5
v -1.5 0 -2.5
v -1.5 1 1.5
v -1.5 1 0.5
v -1.5 1 -2.5
v -1.5 1 -3.5
v -1.5 4 1.5
v -1.5 4 0.5
v -1.5 4 -2.5
v -1.5 4 -3.5
v -0.5 1 2.5
v -0.5 1 1.5
v -0.5 2 3.5
v -0.5 2 2.5
v -0.5 2 1.5
v -0.5 3 2.5
v -0.5 3 1.5
v -0.5 4 3.5
v -0.5 4 1.5
v 1.5 1 0.5
v 1.5 1 -2.5
v 1.5 4 0.5
v 1.5 4 -2.5
v -1.5 1 0.5
v -1.5 1 -2.5
v -1.5 4 0.5
v -1.5 4 -2.5
v 0.5 1 2.5
v 0.5 1 1.5
v 0.5 2 3.5
v 0.5 2 2.5
v 0.5 2 1.5
v 0.5 3 2.5
v 0.5 3 1.5
v 0.5 4 3.5
v 0.5 4 1.5
v 1.5 0 0.5
v 1.5 0 -2.5
v 1.5 1 1.5
v 1.5 1 0.5
v 1.5 1 -2.5
v 1.5 1 -3.5
v 1.5 4 1.5
v 1.5 4 0.5
v 1.5 4 -2.5
v 1.5 4 -3.5
v 2.5 1 0.5
v 2.5 1 -2.5
v 2.5 4 0.5
v 2.5 4 -2.5
v -0.5 2 3.5
v -0.5 4 3.5
v 0.5 2 3.5
v 0.5 4 3.5
v -0.5 1 2.5
v -0.5 2 2.5
v 0.5 1 2.5
v 0.5 2 2.5
v -1.5 1 1.5
v -1.5 4 1.5
v -0.5 1 1.5
v -0.5 2 1.5
v -0.5 3 1.5
v -0.5 4 1.5
v 0.5 1 1.5
v 0.5 2 1.5
v 0.5 3 1.5
v 0.5 4 1.5
v 1.5 1 1.5
v 1.5 4 1.5
v -2.5 1 0.5
v -2.5 4 0.5
v -1.5 0 0.5
v -1.5 1 0.5
v -1.5 4 0.5
v 1.5 0 0.5
v 1.5 1 0.5
v 1.5 4 0.5
v 2.5 1 0.5
v 2.5 4 0.5
v -1.5 1 -2.5
v -1.5 4 -2.5
v 1.5 1 -2.5
v 1.5 4 -2.5
v -0.5 2 2.5
v -0.5 3 2.5
v 0.5 2 2.5
v 0.5 3 2.5
v -1.5 1 0.5
v -1.5 4 0.5
v 1.5 1 0.5
v 1.5 4 0.5
v -2.5 1 -2.5
v -2.5 4 -2.5
v -1.5 0 -2.5
v -1.5 1 -2.5
v -1.5 4 -2.5
v 1.5 0 -2.5
v 1.5 1 -2.5
v 1.5 4 -2.5
v 2.5 1 -2.5
v 2.5 4 -2.5
v -1.5 1 -3.5
v -1.5 4 -3.5
v 1.5 1 -3.5
v 1.5 4 -3.5
v -1.5 0 0.5
v 1.5 0 0.5
v -1.5 0 -2.5
v 1.5 0 -2.5
v -0.5 1 2.5
v 0.5 1 2.5
v -1.5 1 1.5
v -0.5 1 1.5
v 0.5 1 1.5
v 1.5 1 1.5
v -2.5 1 0.5
v -1.5 1 0.5
v 1.5 1 0.5
v 2.5 1 0.5
v -2.5 1 -2.5
v -1.5 1 -2.5
v 1.5 1 -2.5
v 2.5 1 -2.5
v -1.5 1 -3.5
v 1.5 1 -3.5
v -0.5 2 3.5
v 0.5 2 3.5
v -0.5 2 2.5
v 0.5 2 2.5
v -0.5 3 2.5
v 0.5 3 2.5
v -0.5 3 1.5
v 0.5 3 1.5
v -1.5 1 0.5
v 1.5 1 0.5
v -1.5 1 -2.5
v 1.5 1 -2.5
v -0.5 2 2.5
v 0.5 2 2.5
v -0.5 2 1.5
v 0.5 2 1.5
v -0.5 4 3.5
v 0.5 4 3.5
v -1.5 4 1.5
v -0.5 4 1.5
v 0.5 4 1.5
v 1.5 4 1.5
v -2.5 4 0.5
v -1.5 4 0.5
v 1.5 4 0.5
v 2.5 4 0.5
v -2.5 4 -2.5
v -1.5 4 -2.5
v 1.5 4 -2.5
v 2.5 4 -2.5
v -1.5 4 -3.5
v 1.5 4 -3.5

# faces
f 3/1/1 2/1/1 1/1/1
f 4/1/1 2/1/1 3/1/1
f 8/1/1 6/1/1 5/1/1
f 9/1/1 6/1/1 8/1/1
f 11/1/1 8/1/1 7/1/1
f 12/1/1 8/1/1 11/1/1
f 13/1/1 10/1/1 9/1/1
f 14/1/1 10/1/1 13/1/1
f 18/1/1 16/1/1 15/1/1
f 19/1/1 16/1/1 18/1/1
f 20/1/1 18/1/1 17/1/1
f 22/1/1 20/1/1 17/1/1
f 22/1/1 21/1/1 20/1/1
f 23/1/1 21/1/1 22/1/1
f 26/1/1 25/1/1 24/1/1
f 27/1/1 25/1/1 26/1/1
f 28/1/2 29/1/2 30/1/2
f 30/1/2 29/1/2 31/1/2
f 32/1/2 33/1/2 35/1/2
f 35/1/2 33/1/2 36/1/2
f 34/1/2 35/1/2 37/1/2
f 34/1/2 37/1/2 39/1/2
f 37/1/2 38/1/2 39/1/2
f 39/1/2 38/1/2 40/1/2
f 41/1/2 42/1/2 44/1/2
f 44/1/2 42/1/2 45/1/2
f 43/1/2 44/1/2 47/1/2
f 47/1/2 44/1/2 48/1/2
f 45/1/2 46/1/2 49/1/2
f 49/1/2 46/1/2 50/1/2
f 51/1/2 52/1/2 53/1/2
f 53/1/2 52/1/2 54/1/2
f 57/1/3 56/1/3 55/1/3
f 58/1/3 56/1/3 57/1/3
f 61/1/3 60/1/3 59/1/3
f 62/1/3 60/1/3 61/1/3
f 65/1/3 64/1/3 63/1/3
f 66/1/3 64/1/3 65/1/3
f 67/1/3 64/1/3 66/1/3
f 68/1/3 64/1/3 67/1/3
f 70/1/3 67/1/3 66/1/3
f 71/1/3 67/1/3 70/1/3
f 73/1/3 70/1/3 69/1/3
f 73/1/3 72/1/3 71/1/3
f 73/1/3 71/1/3 70/1/3
f 74/1/3 72/1/3 73/1/3
f 78/1/3 76/1/3 75/1/3
f 79/1/3 76/1/3 78/1/3
f 80/1/3 78/1/3 77/1/3
f 81/1/3 78/1/3 80/1/3
f 83/1/3 82/1/3 81/1/3
f 84/1/3 82/1/3 83/1/3
f 87/1/3 86/1/3 85/1/3
f 88/1/3 86/1/3 87/1/3
f 89/1/4 90/1/4 91/1/4
f 91/1/4 90/1/4 92/1/4
f 93/1/4 94/1/4 95/1/4
f 95/1/4 94/1/4 96/1/4
f 97/1/4 98/1/4 100/1/4
f 100/1/4 98/1/4 101/1/4
f 99/1/4 100/1/4 102/1/4
f 102/1/4 100/1/4 103/1/4
f 103/1/4 104/1/4 105/1/4
f 105/1/4 104/1/4 106/1/4
f 107/1/4 108/1/4 109/1/4
f 109/1/4 108/1/4 110/1/4
f 113/1/5 112/1/5 111/1/5
f 114/1/5 112/1/5 113/1/5
f 118/1/5 116/1/5 115/1/5
f 119/1/5 116/1/5 118/1/5
f 122/1/5 118/1/5 117/1/5
f 122/1/5 120/1/5 119/1/5
f 122/1/5 119/1/5 118/1/5
f 123/1/5 120/1/5 122/1/5
f 125/1/5 122/1/5 121/1/5
f 126/1/5 122/1/5 125/1/5
f 127/1/5 124/1/5 123/1/5
f 128/1/5 124/1/5 127/1/5
f 129/1/5 127/1/5 126/1/5
f 130/1/5 127/1/5 129/1/5
f 133/1/5 132/1/5 131/1/5
f 134/1/5 132/1/5 133/1/5
f 137/1/5 136/1/5 135/1/5
f 138/1/5 136/1/5 137/1/5
f 139/1/6 140/1/6 141/1/6
f 141/1/6 140/1/6 142/1/6
f 143/1/6 144/1/6 145/1/6
f 145/1/6 144/1/6 146/1/6
f 147/1/6 148/1/6 150/1/6
f 150/1/6 148/1/6 151/1/6
f 149/1/6 150/1/6 154/1/6
f 151/1/6 152/1/6 154/1/6
f 150/1/6 151/1/6 154/1/6
f 154/1/6 152/1/6 155/1/6
f 153/1/6 154/1/6 157/1/6
f 157/1/6 154/1/6 158/1/6
f 155/1/6 156/1/6 159/1/6
f 159/1/6 156/1/6 160/1/6
f 158/1/6 159/1/6 161/1/6
f 161/1/6 159/1/6 162/1/6
