# MagicaVoxel @ Ephtracy

# material
mtllib dressing table.mtl
usemtl palette

# normals
vn -1 0 0
vn 1 0 0
vn 0 0 1
vn 0 0 -1
vn 0 -1 0
vn 0 1 0

# texcoords
vt 0.537109 0.5
vt 0.974609 0.5
vt 0.982422 0.5
vt 0.994141 0.5

# verts
v -9.5 0 4.5
v -9.5 0 -4.5
v -9.5 10 4.5
v -9.5 10 -4.5
v -8.5 10 -2.5
v -8.5 10 -3.5
v -8.5 11 -2.5
v -8.5 11 -3.5
v -7.5 10 -3.5
v -7.5 10 -4.5
v -7.5 11 -2.5
v -7.5 11 -3.5
v -7.5 11 -4.5
v -7.5 24 -2.5
v -7.5 24 -3.5
v -6.5 11 -3.5
v -6.5 11 -4.5
v -6.5 24 -2.5
v -6.5 24 -3.5
v -6.5 24 -4.5
v -6.5 25 -2.5
v -6.5 25 -3.5
v -5.5 24 -3.5
v -5.5 24 -4.5
v -5.5 25 -2.5
v -5.5 25 -3.5
v -5.5 26 -3.5
v -5.5 26 -4.5
v -5.5 27 -2.5
v -5.5 27 -3.5
v -4.5 26 -3.5
v -4.5 26 -4.5
v -4.5 27 -2.5
v -4.5 27 -3.5
v -4.5 27 -4.5
v -4.5 28 -2.5
v -4.5 28 -3.5
v 8.5 0 4.5
v 8.5 0 3.5
v 8.5 1 3.5
v 8.5 3 3.5
v 8.5 4 3.5
v 8.5 6 3.5
v 8.5 7 3.5
v 8.5 9 4.5
v 8.5 9 3.5
v -8.5 0 4.5
v -8.5 0 3.5
v -8.5 1 3.5
v -8.5 3 3.5
v -8.5 4 3.5
v -8.5 6 3.5
v -8.5 7 3.5
v -8.5 9 4.5
v -8.5 9 3.5
v 4.5 25 -3.5
v 4.5 25 -4.5
v 4.5 27 -2.5
v 4.5 27 -3.5
v 4.5 27 -4.5
v 4.5 28 -2.5
v 4.5 28 -3.5
v 5.5 24 -3.5
v 5.5 24 -4.5
v 5.5 25 -2.5
v 5.5 25 -3.5
v 5.5 25 -4.5
v 5.5 27 -2.5
v 5.5 27 -3.5
v 6.5 11 -3.5
v 6.5 11 -4.5
v 6.5 24 -2.5
v 6.5 24 -3.5
v 6.5 24 -4.5
v 6.5 25 -2.5
v 6.5 25 -3.5
v 7.5 10 -3.5
v 7.5 10 -4.5
v 7.5 11 -2.5
v 7.5 11 -3.5
v 7.5 11 -4.5
v 7.5 24 -2.5
v 7.5 24 -3.5
v 8.5 10 -2.5
v 8.5 10 -3.5
v 8.5 11 -2.5
v 8.5 11 -3.5
v 9.5 0 4.5
v 9.5 0 -4.5
v 9.5 10 4.5
v 9.5 10 -4.5
v -9.5 0 4.5
v -9.5 10 4.5
v -8.5 0 4.5
v -8.5 9 4.5
v 8.5 0 4.5
v 8.5 9 4.5
v 9.5 0 4.5
v 9.5 10 4.5
v -8.5 0 3.5
v -8.5 1 3.5
v -8.5 3 3.5
v -8.5 4 3.5
v -8.5 6 3.5
v -8.5 7 3.5
v -8.5 9 3.5
v -6.5 1 3.5
v -6.5 2 3.5
v -6.5 4 3.5
v -6.5 5 3.5
v -6.5 7 3.5
v -6.5 8 3.5
v -4.5 1 3.5
v -4.5 2 3.5
v -4.5 4 3.5
v -4.5 5 3.5
v -4.5 7 3.5
v -4.5 8 3.5
v 4.5 1 3.5
v 4.5 2 3.5
v 4.5 4 3.5
v 4.5 5 3.5
v 4.5 7 3.5
v 4.5 8 3.5
v 6.5 1 3.5
v 6.5 2 3.5
v 6.5 4 3.5
v 6.5 5 3.5
v 6.5 7 3.5
v 6.5 8 3.5
v 8.5 0 3.5
v 8.5 1 3.5
v 8.5 3 3.5
v 8.5 4 3.5
v 8.5 6 3.5
v 8.5 7 3.5
v 8.5 9 3.5
v -8.5 10 -2.5
v -8.5 11 -2.5
v -7.5 11 -2.5
v -7.5 24 -2.5
v -6.5 10 -2.5
v -6.5 24 -2.5
v -6.5 25 -2.5
v -5.5 24 -2.5
v -5.5 25 -2.5
v -5.5 27 -2.5
v -4.5 25 -2.5
v -4.5 27 -2.5
v -4.5 28 -2.5
v 4.5 25 -2.5
v 4.5 27 -2.5
v 4.5 28 -2.5
v 5.5 24 -2.5
v 5.5 25 -2.5
v 5.5 27 -2.5
v 6.5 10 -2.5
v 6.5 24 -2.5
v 6.5 25 -2.5
v 7.5 11 -2.5
v 7.5 24 -2.5
v 8.5 10 -2.5
v 8.5 11 -2.5
v -8.5 10 -3.5
v -8.5 11 -3.5
v -7.5 10 -3.5
v -7.5 11 -3.5
v -7.5 24 -3.5
v -6.5 11 -3.5
v -6.5 24 -3.5
v -6.5 25 -3.5
v -5.5 24 -3.5
v -5.5 25 -3.5
v -5.5 26 -3.5
v -5.5 27 -3.5
v -4.5 26 -3.5
v -4.5 27 -3.5
v -4.5 28 -3.5
v 4.5 25 -3.5
v 4.5 27 -3.5
v 4.5 28 -3.5
v 5.5 24 -3.5
v 5.5 25 -3.5
v 5.5 27 -3.5
v 6.5 11 -3.5
v 6.5 24 -3.5
v 6.5 25 -3.5
v 7.5 10 -3.5
v 7.5 11 -3.5
v 7.5 24 -3.5
v 8.5 10 -3.5
v 8.5 11 -3.5
v -9.5 0 -4.5
v -9.5 10 -4.5
v -7.5 10 -4.5
v -7.5 11 -4.5
v -6.5 11 -4.5
v -6.5 24 -4.5
v -5.5 24 -4.5
v -5.5 26 -4.5
v -4.5 26 -4.5
v -4.5 27 -4.5
v 4.5 25 -4.5
v 4.5 27 -4.5
v 5.5 24 -4.5
v 5.5 25 -4.5
v 6.5 11 -4.5
v 6.5 24 -4.5
v 7.5 10 -4.5
v 7.5 11 -4.5
v 9.5 0 -4.5
v 9.5 10 -4.5
v -9.5 0 4.5
v -8.5 0 4.5
v 8.5 0 4.5
v 9.5 0 4.5
v -8.5 0 3.5
v 8.5 0 3.5
v -9.5 0 -4.5
v 9.5 0 -4.5
v -8.5 9 4.5
v 8.5 9 4.5
v -8.5 9 3.5
v 8.5 9 3.5
v -9.5 10 4.5
v 9.5 10 4.5
v -8.5 10 -2.5
v -6.5 10 -2.5
v 6.5 10 -2.5
v 8.5 10 -2.5
v -8.5 10 -3.5
v -7.5 10 -3.5
v 7.5 10 -3.5
v 8.5 10 -3.5
v -9.5 10 -4.5
v -7.5 10 -4.5
v 7.5 10 -4.5
v 9.5 10 -4.5
v -8.5 11 -2.5
v -7.5 11 -2.5
v 7.5 11 -2.5
v 8.5 11 -2.5
v -8.5 11 -3.5
v -7.5 11 -3.5
v -6.5 11 -3.5
v 6.5 11 -3.5
v 7.5 11 -3.5
v 8.5 11 -3.5
v -7.5 11 -4.5
v -6.5 11 -4.5
v 6.5 11 -4.5
v 7.5 11 -4.5
v -7.5 24 -2.5
v -6.5 24 -2.5
v 6.5 24 -2.5
v 7.5 24 -2.5
v -7.5 24 -3.5
v -6.5 24 -3.5
v -5.5 24 -3.5
v 5.5 24 -3.5
v 6.5 24 -3.5
v 7.5 24 -3.5
v -6.5 24 -4.5
v -5.5 24 -4.5
v 5.5 24 -4.5
v 6.5 24 -4.5
v -6.5 25 -2.5
v -5.5 25 -2.5
v 5.5 25 -2.5
v 6.5 25 -2.5
v -6.5 25 -3.5
v -5.5 25 -3.5
v 4.5 25 -3.5
v 5.5 25 -3.5
v 6.5 25 -3.5
v 4.5 25 -4.5
v 5.5 25 -4.5
v -5.5 26 -3.5
v -4.5 26 -3.5
v -5.5 26 -4.5
v -4.5 26 -4.5
v -5.5 27 -2.5
v -4.5 27 -2.5
v 4.5 27 -2.5
v 5.5 27 -2.5
v -5.5 27 -3.5
v -4.5 27 -3.5
v 4.5 27 -3.5
v 5.5 27 -3.5
v -4.5 27 -4.5
v 4.5 27 -4.5
v -4.5 28 -2.5
v 4.5 28 -2.5
v -4.5 28 -3.5
v 4.5 28 -3.5

# faces
f 3/1/1 2/1/1 1/1/1
f 4/1/1 2/1/1 3/1/1
f 7/1/1 6/1/1 5/1/1
f 8/1/1 6/1/1 7/1/1
f 12/1/1 10/1/1 9/1/1
f 13/1/1 10/1/1 12/1/1
f 14/1/1 12/1/1 11/1/1
f 15/1/1 12/1/1 14/1/1
f 19/1/1 17/1/1 16/1/1
f 20/1/1 17/1/1 19/1/1
f 21/1/1 19/1/1 18/1/1
f 22/1/1 19/1/1 21/1/1
f 26/1/1 24/1/1 23/1/1
f 27/1/1 24/1/1 26/1/1
f 27/1/1 26/1/1 25/1/1
f 28/1/1 24/1/1 27/1/1
f 29/1/1 27/1/1 25/1/1
f 30/1/1 27/1/1 29/1/1
f 34/1/1 32/1/1 31/1/1
f 35/1/1 32/1/1 34/1/1
f 36/1/1 34/1/1 33/1/1
f 37/1/1 34/1/1 36/1/1
f 40/1/1 39/1/1 38/1/1
f 41/1/1 40/1/1 38/1/1
f 42/1/1 41/1/1 38/1/1
f 43/1/1 42/1/1 38/1/1
f 44/1/1 43/1/1 38/1/1
f 45/1/1 44/1/1 38/1/1
f 46/1/1 44/1/1 45/1/1
f 47/1/2 48/1/2 49/1/2
f 47/1/2 49/1/2 50/1/2
f 47/1/2 50/1/2 51/1/2
f 47/1/2 51/1/2 52/1/2
f 47/1/2 52/1/2 53/1/2
f 47/1/2 53/1/2 54/1/2
f 54/1/2 53/1/2 55/1/2
f 56/1/2 57/1/2 59/1/2
f 59/1/2 57/1/2 60/1/2
f 58/1/2 59/1/2 61/1/2
f 61/1/2 59/1/2 62/1/2
f 63/1/2 64/1/2 66/1/2
f 66/1/2 64/1/2 67/1/2
f 65/1/2 66/1/2 68/1/2
f 68/1/2 66/1/2 69/1/2
f 70/1/2 71/1/2 73/1/2
f 73/1/2 71/1/2 74/1/2
f 72/1/2 73/1/2 75/1/2
f 75/1/2 73/1/2 76/1/2
f 77/1/2 78/1/2 80/1/2
f 80/1/2 78/1/2 81/1/2
f 79/1/2 80/1/2 82/1/2
f 82/1/2 80/1/2 83/1/2
f 84/1/2 85/1/2 86/1/2
f 86/1/2 85/1/2 87/1/2
f 88/1/2 89/1/2 90/1/2
f 90/1/2 89/1/2 91/1/2
f 94/1/3 93/1/3 92/1/3
f 95/1/3 93/1/3 94/1/3
f 97/1/3 93/1/3 95/1/3
f 98/1/3 97/1/3 96/1/3
f 99/1/3 93/1/3 97/1/3
f 99/1/3 97/1/3 98/1/3
f 107/1/3 101/1/3 100/1/3
f 107/2/3 102/2/3 101/2/3
f 108/2/3 102/2/3 107/2/3
f 109/1/3 103/1/3 102/1/3
f 109/2/3 104/2/3 103/2/3
f 110/2/3 104/2/3 109/2/3
f 111/2/3 106/2/3 105/2/3
f 111/1/3 105/1/3 104/1/3
f 112/2/3 106/2/3 111/2/3
f 113/3/3 108/3/3 107/3/3
f 113/1/3 107/1/3 100/1/3
f 114/2/3 102/2/3 108/2/3
f 114/3/3 108/3/3 113/3/3
f 115/3/3 110/3/3 109/3/3
f 115/1/3 109/1/3 102/1/3
f 116/2/3 104/2/3 110/2/3
f 116/3/3 110/3/3 115/3/3
f 117/3/3 112/3/3 111/3/3
f 117/1/3 111/1/3 104/1/3
f 118/2/3 106/2/3 112/2/3
f 118/3/3 112/3/3 117/3/3
f 119/1/3 113/1/3 100/1/3
f 119/2/3 114/2/3 113/2/3
f 120/2/3 102/2/3 114/2/3
f 120/2/3 114/2/3 119/2/3
f 121/1/3 115/1/3 102/1/3
f 121/2/3 116/2/3 115/2/3
f 122/2/3 104/2/3 116/2/3
f 122/2/3 116/2/3 121/2/3
f 123/1/3 117/1/3 104/1/3
f 123/2/3 118/2/3 117/2/3
f 124/2/3 106/2/3 118/2/3
f 124/2/3 118/2/3 123/2/3
f 125/1/3 119/1/3 100/1/3
f 125/3/3 120/3/3 119/3/3
f 126/2/3 102/2/3 120/2/3
f 126/3/3 120/3/3 125/3/3
f 127/1/3 121/1/3 102/1/3
f 127/3/3 122/3/3 121/3/3
f 128/2/3 104/2/3 122/2/3
f 128/3/3 122/3/3 127/3/3
f 129/1/3 123/1/3 104/1/3
f 129/3/3 124/3/3 123/3/3
f 130/2/3 106/2/3 124/2/3
f 130/3/3 124/3/3 129/3/3
f 131/1/3 125/1/3 100/1/3
f 132/2/3 126/2/3 125/2/3
f 132/1/3 125/1/3 131/1/3
f 133/1/3 127/1/3 102/1/3
f 133/2/3 126/2/3 132/2/3
f 133/2/3 102/2/3 126/2/3
f 134/2/3 128/2/3 127/2/3
f 134/1/3 127/1/3 133/1/3
f 135/1/3 129/1/3 104/1/3
f 135/2/3 128/2/3 134/2/3
f 135/2/3 104/2/3 128/2/3
f 136/2/3 130/2/3 129/2/3
f 136/1/3 129/1/3 135/1/3
f 137/2/3 106/2/3 130/2/3
f 137/2/3 130/2/3 136/2/3
f 140/1/3 139/1/3 138/1/3
f 142/1/3 140/1/3 138/1/3
f 142/1/3 141/1/3 140/1/3
f 143/1/3 141/1/3 142/1/3
f 145/4/3 143/4/3 142/4/3
f 145/1/3 144/1/3 143/1/3
f 146/1/3 144/1/3 145/1/3
f 148/4/3 146/4/3 145/4/3
f 148/1/3 147/1/3 146/1/3
f 149/1/3 147/1/3 148/1/3
f 151/4/3 148/4/3 145/4/3
f 151/4/3 149/4/3 148/4/3
f 152/1/3 150/1/3 149/1/3
f 152/4/3 149/4/3 151/4/3
f 153/1/3 150/1/3 152/1/3
f 154/4/3 145/4/3 142/4/3
f 154/4/3 151/4/3 145/4/3
f 155/1/3 152/1/3 151/1/3
f 155/4/3 151/4/3 154/4/3
f 156/1/3 152/1/3 155/1/3
f 157/4/3 154/4/3 142/4/3
f 158/1/3 155/1/3 154/1/3
f 158/4/3 154/4/3 157/4/3
f 159/1/3 155/1/3 158/1/3
f 160/1/3 158/1/3 157/1/3
f 161/1/3 158/1/3 160/1/3
f 162/1/3 160/1/3 157/1/3
f 163/1/3 160/1/3 162/1/3
f 164/1/4 165/1/4 166/1/4
f 166/1/4 165/1/4 167/1/4
f 167/1/4 168/1/4 169/1/4
f 169/1/4 168/1/4 170/1/4
f 170/1/4 171/1/4 172/1/4
f 172/1/4 171/1/4 173/1/4
f 174/1/4 175/1/4 176/1/4
f 176/1/4 175/1/4 177/1/4
f 177/1/4 178/1/4 180/1/4
f 180/1/4 178/1/4 181/1/4
f 179/1/4 180/1/4 183/1/4
f 183/1/4 180/1/4 184/1/4
f 182/1/4 183/1/4 186/1/4
f 186/1/4 183/1/4 187/1/4
f 185/1/4 186/1/4 189/1/4
f 189/1/4 186/1/4 190/1/4
f 188/1/4 189/1/4 191/1/4
f 191/1/4 189/1/4 192/1/4
f 193/1/4 194/1/4 195/1/4
f 195/1/4 196/1/4 197/1/4
f 197/1/4 198/1/4 199/1/4
f 199/1/4 200/1/4 201/1/4
f 199/1/4 201/1/4 203/1/4
f 201/1/4 202/1/4 203/1/4
f 203/1/4 202/1/4 204/1/4
f 197/1/4 199/1/4 205/1/4
f 199/1/4 203/1/4 205/1/4
f 205/1/4 203/1/4 206/1/4
f 195/1/4 197/1/4 207/1/4
f 197/1/4 205/1/4 207/1/4
f 207/1/4 205/1/4 208/1/4
f 193/1/4 195/1/4 209/1/4
f 195/1/4 207/1/4 209/1/4
f 209/1/4 207/1/4 210/1/4
f 193/1/4 209/1/4 211/1/4
f 211/1/4 209/1/4 212/1/4
f 217/1/5 214/1/5 213/1/5
f 218/1/5 216/1/5 215/1/5
f 219/1/5 217/1/5 213/1/5
f 219/1/5 218/1/5 217/1/5
f 220/1/5 216/1/5 218/1/5
f 220/1/5 218/1/5 219/1/5
f 223/1/5 222/1/5 221/1/5
f 224/1/5 222/1/5 223/1/5
f 225/1/6 226/1/6 227/1/6
f 227/1/6 226/1/6 228/1/6
f 228/1/6 226/1/6 229/1/6
f 229/1/6 226/1/6 230/1/6
f 225/1/6 227/1/6 231/1/6
f 230/1/6 226/1/6 234/1/6
f 231/1/6 232/1/6 235/1/6
f 225/1/6 231/1/6 235/1/6
f 235/1/6 232/1/6 236/1/6
f 233/1/6 234/1/6 237/1/6
f 234/1/6 226/1/6 238/1/6
f 237/1/6 234/1/6 238/1/6
f 239/1/6 240/1/6 243/1/6
f 243/1/6 240/1/6 244/1/6
f 241/1/6 242/1/6 247/1/6
f 247/1/6 242/1/6 248/1/6
f 244/1/6 245/1/6 249/1/6
f 249/1/6 245/1/6 250/1/6
f 246/1/6 247/1/6 251/1/6
f 251/1/6 247/1/6 252/1/6
f 253/1/6 254/1/6 257/1/6
f 257/1/6 254/1/6 258/1/6
f 255/1/6 256/1/6 261/1/6
f 261/1/6 256/1/6 262/1/6
f 258/1/6 259/1/6 263/1/6
f 263/1/6 259/1/6 264/1/6
f 260/1/6 261/1/6 265/1/6
f 265/1/6 261/1/6 266/1/6
f 267/1/6 268/1/6 271/1/6
f 271/1/6 268/1/6 272/1/6
f 269/1/6 270/1/6 274/1/6
f 274/1/6 270/1/6 275/1/6
f 273/1/6 274/1/6 276/1/6
f 276/1/6 274/1/6 277/1/6
f 278/1/6 279/1/6 280/1/6
f 280/1/6 279/1/6 281/1/6
f 282/1/6 283/1/6 286/1/6
f 286/1/6 283/1/6 287/1/6
f 284/1/6 285/1/6 288/1/6
f 288/1/6 285/1/6 289/1/6
f 287/1/6 288/1/6 290/1/6
f 290/1/6 288/1/6 291/1/6
f 292/1/6 293/1/6 294/1/6
f 294/1/6 293/1/6 295/1/6
