# MagicaVoxel @ Ephtracy

# material
mtllib sofa.mtl
usemtl palette

# normals
vn -1 0 0
vn 1 0 0
vn 0 0 1
vn 0 0 -1
vn 0 -1 0
vn 0 1 0

# texcoords
vt 0.537109 0.5
vt 0.865234 0.5

# verts
v -16 4 5
v -16 4 -5
v -16 8 5
v -16 8 -5
v -15 0 5
v -15 0 4
v -15 0 -4
v -15 0 -5
v -15 2 4
v -15 2 -4
v -15 4 5
v -15 4 -5
v -15 8 -2
v -15 8 -5
v -15 11 -2
v -15 11 -5
v -14 0 4
v -14 0 -4
v -14 2 4
v -14 2 -4
v -14 11 -2
v -14 11 -5
v -14 13 -2
v -14 13 -5
v 13 0 5
v 13 0 4
v 13 0 -4
v 13 0 -5
v 13 2 5
v 13 2 4
v 13 3 -4
v 13 3 -5
v 13 4 5
v 13 4 4
v 13 5 4
v 13 5 -2
v 13 8 5
v 13 8 -2
v -14 0 -4
v -14 0 -5
v -14 3 -4
v -14 3 -5
v -13 0 5
v -13 0 4
v -13 2 5
v -13 2 4
v -13 4 5
v -13 4 4
v -13 5 4
v -13 5 -2
v -13 8 5
v -13 8 -2
v 14 0 4
v 14 0 -4
v 14 2 4
v 14 2 -4
v 14 11 -2
v 14 11 -5
v 14 13 -2
v 14 13 -5
v 15 0 5
v 15 0 4
v 15 0 -4
v 15 0 -5
v 15 2 4
v 15 2 -4
v 15 4 5
v 15 4 -5
v 15 8 -2
v 15 8 -5
v 15 11 -2
v 15 11 -5
v 16 4 5
v 16 4 -5
v 16 8 5
v 16 8 -5
v -16 4 5
v -16 8 5
v -15 0 5
v -15 4 5
v -15 7 5
v -14 3 5
v -14 7 5
v -13 0 5
v -13 2 5
v -13 4 5
v -13 8 5
v 13 0 5
v 13 2 5
v 13 4 5
v 13 8 5
v 14 3 5
v 14 7 5
v 15 0 5
v 15 4 5
v 15 7 5
v 16 4 5
v 16 8 5
v -13 0 4
v -13 2 4
v -13 4 4
v -13 5 4
v 13 0 4
v 13 2 4
v 13 4 4
v 13 5 4
v -15 8 -2
v -15 11 -2
v -14 11 -2
v -14 13 -2
v -13 5 -2
v -13 8 -2
v 13 5 -2
v 13 8 -2
v 14 11 -2
v 14 13 -2
v 15 8 -2
v 15 11 -2
v -15 0 -4
v -15 2 -4
v -14 0 -4
v -14 2 -4
v 14 0 -4
v 14 2 -4
v 15 0 -4
v 15 2 -4
v -15 0 4
v -15 2 4
v -14 0 4
v -14 2 4
v 14 0 4
v 14 2 4
v 15 0 4
v 15 2 4
v -14 0 -4
v -14 3 -4
v 13 0 -4
v 13 3 -4
v -16 4 -5
v -16 8 -5
v -15 0 -5
v -15 4 -5
v -15 7 -5
v -15 8 -5
v -15 11 -5
v -14 0 -5
v -14 3 -5
v -14 7 -5
v -14 10 -5
v -14 11 -5
v -14 13 -5
v -13 10 -5
v -13 12 -5
v 12 10 -5
v 12 12 -5
v 13 0 -5
v 13 3 -5
v 13 7 -5
v 13 10 -5
v 14 11 -5
v 14 13 -5
v 15 0 -5
v 15 4 -5
v 15 7 -5
v 15 8 -5
v 15 11 -5
v 16 4 -5
v 16 8 -5
v -15 0 5
v -13 0 5
v 13 0 5
v 15 0 5
v -15 0 4
v -14 0 4
v -13 0 4
v 13 0 4
v 14 0 4
v 15 0 4
v -13 0 3
v 13 0 3
v -13 0 -3
v 13 0 -3
v -15 0 -4
v -14 0 -4
v 13 0 -4
v 14 0 -4
v 15 0 -4
v -15 0 -5
v -14 0 -5
v 13 0 -5
v 15 0 -5
v -13 2 5
v 13 2 5
v -15 2 4
v -14 2 4
v -13 2 4
v 13 2 4
v 14 2 4
v 15 2 4
v -15 2 -4
v -14 2 -4
v 14 2 -4
v 15 2 -4
v -14 3 -4
v 13 3 -4
v -14 3 -5
v 13 3 -5
v -16 4 5
v -15 4 5
v 15 4 5
v 16 4 5
v -16 4 -5
v -15 4 -5
v 15 4 -5
v 16 4 -5
v -13 4 5
v 13 4 5
v -13 4 4
v 13 4 4
v -13 5 4
v 13 5 4
v -13 5 -2
v 13 5 -2
v -16 8 5
v -13 8 5
v 13 8 5
v 16 8 5
v -15 8 -2
v -13 8 -2
v 13 8 -2
v 15 8 -2
v -16 8 -5
v -15 8 -5
v 15 8 -5
v 16 8 -5
v -15 11 -2
v -14 11 -2
v 14 11 -2
v 15 11 -2
v -15 11 -5
v -14 11 -5
v 14 11 -5
v 15 11 -5
v -14 13 -2
v 14 13 -2
v -14 13 -5
v 14 13 -5

# faces
f 3/2/1 2/2/1 1/2/1
f 4/2/1 2/2/1 3/2/1
f 9/1/1 6/1/1 5/1/1
f 10/1/1 8/1/1 7/1/1
f 11/1/1 9/1/1 5/1/1
f 11/1/1 10/1/1 9/1/1
f 12/1/1 8/1/1 10/1/1
f 12/1/1 10/1/1 11/1/1
f 15/2/1 14/2/1 13/2/1
f 16/2/1 14/2/1 15/2/1
f 19/1/1 18/1/1 17/1/1
f 20/1/1 18/1/1 19/1/1
f 23/2/1 22/2/1 21/2/1
f 24/2/1 22/2/1 23/2/1
f 29/1/1 26/1/1 25/1/1
f 30/1/1 26/1/1 29/1/1
f 31/1/1 28/1/1 27/1/1
f 32/1/1 28/1/1 31/1/1
f 35/2/1 34/2/1 33/2/1
f 37/2/1 35/2/1 33/2/1
f 37/2/1 36/2/1 35/2/1
f 38/2/1 36/2/1 37/2/1
f 39/1/2 40/1/2 41/1/2
f 41/1/2 40/1/2 42/1/2
f 43/1/2 44/1/2 45/1/2
f 45/1/2 44/1/2 46/1/2
f 47/2/2 48/2/2 49/2/2
f 47/2/2 49/2/2 51/2/2
f 49/2/2 50/2/2 51/2/2
f 51/2/2 50/2/2 52/2/2
f 53/1/2 54/1/2 55/1/2
f 55/1/2 54/1/2 56/1/2
f 57/2/2 58/2/2 59/2/2
f 59/2/2 58/2/2 60/2/2
f 61/1/2 62/1/2 65/1/2
f 63/1/2 64/1/2 66/1/2
f 61/1/2 65/1/2 67/1/2
f 65/1/2 66/1/2 67/1/2
f 66/1/2 64/1/2 68/1/2
f 67/1/2 66/1/2 68/1/2
f 69/2/2 70/2/2 71/2/2
f 71/2/2 70/2/2 72/2/2
f 73/2/2 74/2/2 75/2/2
f 75/2/2 74/2/2 76/2/2
f 80/2/3 78/2/3 77/2/3
f 81/2/3 78/2/3 80/2/3
f 82/1/3 80/1/3 79/1/3
f 82/1/3 81/1/3 80/1/3
f 83/2/3 78/2/3 81/2/3
f 83/1/3 81/1/3 82/1/3
f 84/1/3 82/1/3 79/1/3
f 85/1/3 82/1/3 84/1/3
f 86/2/3 83/2/3 82/2/3
f 87/2/3 78/2/3 83/2/3
f 87/2/3 83/2/3 86/2/3
f 89/1/3 82/1/3 85/1/3
f 90/2/3 86/2/3 82/2/3
f 92/1/3 89/1/3 88/1/3
f 92/2/3 91/2/3 90/2/3
f 92/2/3 90/2/3 82/2/3
f 92/1/3 82/1/3 89/1/3
f 93/2/3 91/2/3 92/2/3
f 94/1/3 92/1/3 88/1/3
f 94/1/3 93/1/3 92/1/3
f 95/1/3 93/1/3 94/1/3
f 96/2/3 91/2/3 93/2/3
f 96/1/3 93/1/3 95/1/3
f 97/2/3 96/2/3 95/2/3
f 98/2/3 91/2/3 96/2/3
f 98/2/3 96/2/3 97/2/3
f 103/1/3 100/1/3 99/1/3
f 104/1/3 100/1/3 103/1/3
f 105/2/3 102/2/3 101/2/3
f 106/2/3 102/2/3 105/2/3
f 109/2/3 108/2/3 107/2/3
f 112/2/3 109/2/3 107/2/3
f 112/2/3 110/2/3 109/2/3
f 113/2/3 112/2/3 111/2/3
f 114/2/3 110/2/3 112/2/3
f 114/2/3 112/2/3 113/2/3
f 115/2/3 110/2/3 114/2/3
f 116/2/3 110/2/3 115/2/3
f 117/2/3 115/2/3 114/2/3
f 118/2/3 115/2/3 117/2/3
f 121/1/3 120/1/3 119/1/3
f 122/1/3 120/1/3 121/1/3
f 125/1/3 124/1/3 123/1/3
f 126/1/3 124/1/3 125/1/3
f 127/1/4 128/1/4 129/1/4
f 129/1/4 128/1/4 130/1/4
f 131/1/4 132/1/4 133/1/4
f 133/1/4 132/1/4 134/1/4
f 135/1/4 136/1/4 137/1/4
f 137/1/4 136/1/4 138/1/4
f 139/2/4 140/2/4 142/2/4
f 142/2/4 140/2/4 143/2/4
f 143/2/4 140/2/4 144/2/4
f 141/1/4 142/1/4 146/1/4
f 142/1/4 143/1/4 146/1/4
f 146/1/4 143/1/4 147/1/4
f 144/2/4 145/2/4 148/2/4
f 147/1/4 143/1/4 148/1/4
f 143/2/4 144/2/4 148/2/4
f 148/2/4 145/2/4 149/2/4
f 149/2/4 145/2/4 150/2/4
f 150/2/4 151/2/4 152/2/4
f 149/2/4 150/2/4 152/2/4
f 148/1/4 149/1/4 152/1/4
f 147/1/4 148/1/4 152/1/4
f 152/2/4 151/2/4 153/2/4
f 147/1/4 152/1/4 154/1/4
f 152/1/4 153/1/4 154/1/4
f 153/2/4 151/2/4 155/2/4
f 154/1/4 153/1/4 155/1/4
f 147/1/4 154/1/4 157/1/4
f 157/1/4 154/1/4 158/1/4
f 154/2/4 155/2/4 159/2/4
f 158/1/4 154/1/4 159/1/4
f 158/2/4 159/2/4 160/2/4
f 159/2/4 155/2/4 160/2/4
f 155/2/4 151/2/4 161/2/4
f 160/2/4 155/2/4 161/2/4
f 157/1/4 158/1/4 162/1/4
f 156/1/4 157/1/4 162/1/4
f 162/1/4 158/1/4 163/1/4
f 158/2/4 160/2/4 164/2/4
f 163/1/4 158/1/4 164/1/4
f 164/2/4 160/2/4 165/2/4
f 165/2/4 160/2/4 166/2/4
f 163/2/4 164/2/4 167/2/4
f 164/2/4 165/2/4 167/2/4
f 167/2/4 165/2/4 168/2/4
f 173/1/5 170/1/5 169/1/5
f 174/1/5 170/1/5 173/1/5
f 175/1/5 170/1/5 174/1/5
f 176/1/5 172/1/5 171/1/5
f 177/1/5 172/1/5 176/1/5
f 178/1/5 172/1/5 177/1/5
f 179/1/5 175/1/5 174/1/5
f 179/1/5 177/1/5 176/1/5
f 179/1/5 176/1/5 175/1/5
f 180/1/5 177/1/5 179/1/5
f 181/1/5 179/1/5 174/1/5
f 181/2/5 180/2/5 179/2/5
f 182/1/5 177/1/5 180/1/5
f 182/2/5 180/2/5 181/2/5
f 184/1/5 181/1/5 174/1/5
f 184/1/5 182/1/5 181/1/5
f 185/1/5 177/1/5 182/1/5
f 185/1/5 182/1/5 184/1/5
f 186/1/5 177/1/5 185/1/5
f 188/1/5 184/1/5 183/1/5
f 189/1/5 184/1/5 188/1/5
f 190/1/5 187/1/5 186/1/5
f 190/1/5 186/1/5 185/1/5
f 191/1/5 187/1/5 190/1/5
f 196/1/5 193/1/5 192/1/5
f 197/1/5 193/1/5 196/1/5
f 200/1/5 195/1/5 194/1/5
f 201/1/5 195/1/5 200/1/5
f 202/1/5 199/1/5 198/1/5
f 203/1/5 199/1/5 202/1/5
f 206/1/5 205/1/5 204/1/5
f 207/1/5 205/1/5 206/1/5
f 212/2/5 209/2/5 208/2/5
f 213/2/5 209/2/5 212/2/5
f 214/2/5 211/2/5 210/2/5
f 215/2/5 211/2/5 214/2/5
f 216/2/6 217/2/6 218/2/6
f 218/2/6 217/2/6 219/2/6
f 220/2/6 221/2/6 222/2/6
f 222/2/6 221/2/6 223/2/6
f 224/2/6 225/2/6 228/2/6
f 228/2/6 225/2/6 229/2/6
f 226/2/6 227/2/6 230/2/6
f 230/2/6 227/2/6 231/2/6
f 224/2/6 228/2/6 232/2/6
f 232/2/6 228/2/6 233/2/6
f 231/2/6 227/2/6 234/2/6
f 234/2/6 227/2/6 235/2/6
f 236/2/6 237/2/6 240/2/6
f 240/2/6 237/2/6 241/2/6
f 238/2/6 239/2/6 242/2/6
f 242/2/6 239/2/6 243/2/6
f 244/2/6 245/2/6 246/2/6
f 246/2/6 245/2/6 247/2/6
