# MagicaVoxel @ Ephtracy

# material
mtllib wardrobe.mtl
usemtl palette

# normals
vn -1 0 0
vn 1 0 0
vn 0 0 1
vn 0 0 -1
vn 0 -1 0
vn 0 1 0

# texcoords
vt 0.537109 0.5
vt 0.974609 0.5
vt 0.982422 0.5

# verts
v -4 0 12.5
v -4 0 -12.5
v -4 32 12.5
v -4 32 -12.5
v 2 2 -0.5
v 2 2 -11.5
v 2 6 -0.5
v 2 6 -11.5
v 3 2 11.5
v 3 2 0.5
v 3 2 -0.5
v 3 3 3.5
v 3 3 1.5
v 3 4 3.5
v 3 4 1.5
v 3 6 11.5
v 3 6 0.5
v 3 6 -0.5
v 3 7 11.5
v 3 7 -11.5
v 3 14 1.5
v 3 14 0.5
v 3 14 -0.5
v 3 14 -1.5
v 3 17 1.5
v 3 17 0.5
v 3 17 -0.5
v 3 17 -1.5
v 3 26 11.5
v 3 26 -11.5
v 3 27 11.5
v 3 27 0.5
v 3 27 -0.5
v 3 27 -11.5
v 3 28 3.5
v 3 28 1.5
v 3 28 -1.5
v 3 28 -3.5
v 3 29 3.5
v 3 29 1.5
v 3 29 -1.5
v 3 29 -3.5
v 3 31 11.5
v 3 31 0.5
v 3 31 -0.5
v 3 31 -11.5
v -3 2 11.5
v -3 2 -11.5
v -3 6 11.5
v -3 6 -11.5
v -3 7 11.5
v -3 7 -11.5
v -3 26 11.5
v -3 26 -11.5
v -3 27 11.5
v -3 27 -11.5
v -3 31 11.5
v -3 31 -11.5
v 3 0 11.5
v 3 0 -11.5
v 3 1 11.5
v 3 1 -11.5
v 4 0 12.5
v 4 0 11.5
v 4 0 -11.5
v 4 0 -12.5
v 4 1 11.5
v 4 1 -11.5
v 4 2 11.5
v 4 2 0.5
v 4 2 -0.5
v 4 2 -11.5
v 4 3 3.5
v 4 3 1.5
v 4 3 -1.5
v 4 3 -3.5
v 4 4 3.5
v 4 4 1.5
v 4 4 -1.5
v 4 4 -3.5
v 4 6 11.5
v 4 6 0.5
v 4 6 -0.5
v 4 6 -11.5
v 4 7 11.5
v 4 7 -11.5
v 4 14 1.5
v 4 14 0.5
v 4 14 -0.5
v 4 14 -1.5
v 4 17 1.5
v 4 17 0.5
v 4 17 -0.5
v 4 17 -1.5
v 4 26 11.5
v 4 26 -11.5
v 4 27 11.5
v 4 27 0.5
v 4 27 -0.5
v 4 27 -11.5
v 4 28 3.5
v 4 28 1.5
v 4 28 -1.5
v 4 28 -3.5
v 4 29 3.5
v 4 29 1.5
v 4 29 -1.5
v 4 29 -3.5
v 4 31 11.5
v 4 31 0.5
v 4 31 -0.5
v 4 31 -11.5
v 4 32 12.5
v 4 32 -12.5
v -4 0 12.5
v -4 32 12.5
v 4 0 12.5
v 4 32 12.5
v 2 2 -0.5
v 2 6 -0.5
v 3 2 -0.5
v 3 6 -0.5
v -3 2 -11.5
v -3 6 -11.5
v -3 7 -11.5
v -3 26 -11.5
v -3 27 -11.5
v -3 31 -11.5
v 2 2 -11.5
v 2 6 -11.5
v 3 0 -11.5
v 3 1 -11.5
v 3 7 -11.5
v 3 26 -11.5
v 3 27 -11.5
v 3 31 -11.5
v 4 0 -11.5
v 4 1 -11.5
v -3 2 11.5
v -3 6 11.5
v -3 7 11.5
v -3 26 11.5
v -3 27 11.5
v -3 31 11.5
v 3 0 11.5
v 3 1 11.5
v 3 2 11.5
v 3 6 11.5
v 3 7 11.5
v 3 26 11.5
v 3 27 11.5
v 3 31 11.5
v 4 0 11.5
v 4 1 11.5
v -4 0 -12.5
v -4 32 -12.5
v 4 0 -12.5
v 4 32 -12.5
v -4 0 12.5
v 4 0 12.5
v 3 0 11.5
v 4 0 11.5
v 3 0 -11.5
v 4 0 -11.5
v -4 0 -12.5
v 4 0 -12.5
v 3 1 11.5
v 4 1 11.5
v 3 1 -11.5
v 4 1 -11.5
v -3 6 11.5
v 3 6 11.5
v 3 6 0.5
v 2 6 -0.5
v 3 6 -0.5
v -3 6 -11.5
v 2 6 -11.5
v -3 26 11.5
v 3 26 11.5
v -3 26 -11.5
v 3 26 -11.5
v -3 31 11.5
v 3 31 11.5
v 3 31 0.5
v 3 31 -0.5
v -3 31 -11.5
v 3 31 -11.5
v -3 2 11.5
v 3 2 11.5
v 3 2 0.5
v 2 2 -0.5
v 3 2 -0.5
v -3 2 -11.5
v 2 2 -11.5
v -3 7 11.5
v 3 7 11.5
v -3 7 -11.5
v 3 7 -11.5
v -3 27 11.5
v 3 27 11.5
v 3 27 0.5
v 3 27 -0.5
v -3 27 -11.5
v 3 27 -11.5
v -4 32 12.5
v 4 32 12.5
v -4 32 -12.5
v 4 32 -12.5

# faces
f 3/1/1 2/1/1 1/1/1
f 4/1/1 2/1/1 3/1/1
f 7/2/1 6/2/1 5/2/1
f 8/2/1 6/2/1 7/2/1
f 12/2/1 10/2/1 9/2/1
f 13/2/1 10/2/1 12/2/1
f 14/2/1 12/2/1 9/2/1
f 14/3/1 13/3/1 12/3/1
f 15/2/1 10/2/1 13/2/1
f 15/3/1 13/3/1 14/3/1
f 16/2/1 14/2/1 9/2/1
f 16/2/1 15/2/1 14/2/1
f 17/1/1 11/1/1 10/1/1
f 17/2/1 15/2/1 16/2/1
f 17/2/1 10/2/1 15/2/1
f 18/1/1 11/1/1 17/1/1
f 21/2/1 20/2/1 19/2/1
f 22/2/1 20/2/1 21/2/1
f 23/2/1 20/2/1 22/2/1
f 24/2/1 20/2/1 23/2/1
f 25/2/1 21/2/1 19/2/1
f 25/3/1 22/3/1 21/3/1
f 26/2/1 23/2/1 22/2/1
f 26/3/1 22/3/1 25/3/1
f 27/3/1 24/3/1 23/3/1
f 27/2/1 23/2/1 26/2/1
f 28/2/1 20/2/1 24/2/1
f 28/3/1 24/3/1 27/3/1
f 29/2/1 27/2/1 26/2/1
f 29/2/1 26/2/1 25/2/1
f 29/2/1 28/2/1 27/2/1
f 29/2/1 25/2/1 19/2/1
f 30/2/1 20/2/1 28/2/1
f 30/2/1 28/2/1 29/2/1
f 35/2/1 32/2/1 31/2/1
f 36/2/1 32/2/1 35/2/1
f 37/2/1 34/2/1 33/2/1
f 38/2/1 34/2/1 37/2/1
f 39/2/1 35/2/1 31/2/1
f 39/3/1 36/3/1 35/3/1
f 40/2/1 32/2/1 36/2/1
f 40/3/1 36/3/1 39/3/1
f 41/3/1 38/3/1 37/3/1
f 41/2/1 37/2/1 33/2/1
f 42/2/1 34/2/1 38/2/1
f 42/3/1 38/3/1 41/3/1
f 43/2/1 39/2/1 31/2/1
f 43/2/1 40/2/1 39/2/1
f 44/1/1 33/1/1 32/1/1
f 44/2/1 40/2/1 43/2/1
f 44/2/1 32/2/1 40/2/1
f 45/2/1 41/2/1 33/2/1
f 45/1/1 33/1/1 44/1/1
f 45/2/1 42/2/1 41/2/1
f 46/2/1 34/2/1 42/2/1
f 46/2/1 42/2/1 45/2/1
f 47/1/2 48/1/2 49/1/2
f 49/1/2 48/1/2 50/1/2
f 51/1/2 52/1/2 53/1/2
f 53/1/2 52/1/2 54/1/2
f 55/1/2 56/1/2 57/1/2
f 57/1/2 56/1/2 58/1/2
f 59/1/2 60/1/2 61/1/2
f 61/1/2 60/1/2 62/1/2
f 63/1/2 64/1/2 67/1/2
f 65/1/2 66/1/2 68/1/2
f 63/1/2 67/1/2 69/1/2
f 67/1/2 68/1/2 69/1/2
f 69/1/2 68/1/2 70/1/2
f 70/1/2 68/1/2 71/1/2
f 68/1/2 66/1/2 72/1/2
f 71/1/2 68/1/2 72/1/2
f 69/2/2 70/2/2 73/2/2
f 73/2/2 70/2/2 74/2/2
f 71/2/2 72/2/2 75/2/2
f 75/2/2 72/2/2 76/2/2
f 69/2/2 73/2/2 77/2/2
f 73/3/2 74/3/2 77/3/2
f 74/2/2 70/2/2 78/2/2
f 77/3/2 74/3/2 78/3/2
f 75/3/2 76/3/2 79/3/2
f 71/2/2 75/2/2 79/2/2
f 76/2/2 72/2/2 80/2/2
f 79/3/2 76/3/2 80/3/2
f 63/1/2 69/1/2 81/1/2
f 69/2/2 77/2/2 81/2/2
f 77/2/2 78/2/2 81/2/2
f 70/1/2 71/1/2 82/1/2
f 81/2/2 78/2/2 82/2/2
f 78/2/2 70/2/2 82/2/2
f 79/2/2 80/2/2 83/2/2
f 82/1/2 71/1/2 83/1/2
f 71/2/2 79/2/2 83/2/2
f 80/2/2 72/2/2 84/2/2
f 83/2/2 80/2/2 84/2/2
f 72/1/2 66/1/2 84/1/2
f 63/1/2 81/1/2 85/1/2
f 82/1/2 83/1/2 85/1/2
f 83/1/2 84/1/2 85/1/2
f 81/1/2 82/1/2 85/1/2
f 84/1/2 66/1/2 86/1/2
f 85/1/2 84/1/2 86/1/2
f 85/2/2 86/2/2 87/2/2
f 87/2/2 86/2/2 88/2/2
f 88/2/2 86/2/2 89/2/2
f 89/2/2 86/2/2 90/2/2
f 85/2/2 87/2/2 91/2/2
f 87/3/2 88/3/2 91/3/2
f 88/2/2 89/2/2 92/2/2
f 91/3/2 88/3/2 92/3/2
f 89/3/2 90/3/2 93/3/2
f 92/2/2 89/2/2 93/2/2
f 90/2/2 86/2/2 94/2/2
f 93/3/2 90/3/2 94/3/2
f 63/1/2 85/1/2 95/1/2
f 92/2/2 93/2/2 95/2/2
f 93/2/2 94/2/2 95/2/2
f 85/2/2 91/2/2 95/2/2
f 91/2/2 92/2/2 95/2/2
f 94/2/2 86/2/2 96/2/2
f 95/2/2 94/2/2 96/2/2
f 86/1/2 66/1/2 96/1/2
f 63/1/2 95/1/2 97/1/2
f 95/1/2 96/1/2 97/1/2
f 97/1/2 96/1/2 98/1/2
f 98/1/2 96/1/2 99/1/2
f 96/1/2 66/1/2 100/1/2
f 99/1/2 96/1/2 100/1/2
f 97/2/2 98/2/2 101/2/2
f 101/2/2 98/2/2 102/2/2
f 99/2/2 100/2/2 103/2/2
f 103/2/2 100/2/2 104/2/2
f 97/2/2 101/2/2 105/2/2
f 101/3/2 102/3/2 105/3/2
f 102/2/2 98/2/2 106/2/2
f 105/3/2 102/3/2 106/3/2
f 103/3/2 104/3/2 107/3/2
f 99/2/2 103/2/2 107/2/2
f 104/2/2 100/2/2 108/2/2
f 107/3/2 104/3/2 108/3/2
f 63/1/2 97/1/2 109/1/2
f 97/2/2 105/2/2 109/2/2
f 105/2/2 106/2/2 109/2/2
f 98/1/2 99/1/2 110/1/2
f 109/2/2 106/2/2 110/2/2
f 106/2/2 98/2/2 110/2/2
f 107/2/2 108/2/2 111/2/2
f 110/1/2 99/1/2 111/1/2
f 99/2/2 107/2/2 111/2/2
f 108/2/2 100/2/2 112/2/2
f 111/2/2 108/2/2 112/2/2
f 100/1/2 66/1/2 112/1/2
f 63/1/2 109/1/2 113/1/2
f 110/1/2 111/1/2 113/1/2
f 111/1/2 112/1/2 113/1/2
f 109/1/2 110/1/2 113/1/2
f 112/1/2 66/1/2 114/1/2
f 113/1/2 112/1/2 114/1/2
f 117/1/3 116/1/3 115/1/3
f 118/1/3 116/1/3 117/1/3
f 121/2/3 120/2/3 119/2/3
f 122/2/3 120/2/3 121/2/3
f 129/1/3 124/1/3 123/1/3
f 130/1/3 124/1/3 129/1/3
f 133/1/3 126/1/3 125/1/3
f 134/1/3 126/1/3 133/1/3
f 135/1/3 128/1/3 127/1/3
f 136/1/3 128/1/3 135/1/3
f 137/1/3 132/1/3 131/1/3
f 138/1/3 132/1/3 137/1/3
f 139/1/4 140/1/4 147/1/4
f 147/1/4 140/1/4 148/1/4
f 141/1/4 142/1/4 149/1/4
f 149/1/4 142/1/4 150/1/4
f 143/1/4 144/1/4 151/1/4
f 151/1/4 144/1/4 152/1/4
f 145/1/4 146/1/4 153/1/4
f 153/1/4 146/1/4 154/1/4
f 155/1/4 156/1/4 157/1/4
f 157/1/4 156/1/4 158/1/4
f 161/1/5 160/1/5 159/1/5
f 162/1/5 160/1/5 161/1/5
f 163/1/5 161/1/5 159/1/5
f 165/1/5 163/1/5 159/1/5
f 165/1/5 164/1/5 163/1/5
f 166/1/5 164/1/5 165/1/5
f 169/1/5 168/1/5 167/1/5
f 170/1/5 168/1/5 169/1/5
f 173/1/5 172/1/5 171/1/5
f 174/1/5 173/1/5 171/1/5
f 175/1/5 173/1/5 174/1/5
f 176/1/5 174/1/5 171/1/5
f 177/1/5 174/1/5 176/1/5
f 180/1/5 179/1/5 178/1/5
f 181/1/5 179/1/5 180/1/5
f 184/1/5 183/1/5 182/1/5
f 185/1/5 184/1/5 182/1/5
f 186/1/5 185/1/5 182/1/5
f 187/1/5 185/1/5 186/1/5
f 188/1/6 189/1/6 190/1/6
f 188/1/6 190/1/6 191/1/6
f 191/1/6 190/1/6 192/1/6
f 188/1/6 191/1/6 193/1/6
f 193/1/6 191/1/6 194/1/6
f 195/1/6 196/1/6 197/1/6
f 197/1/6 196/1/6 198/1/6
f 199/1/6 200/1/6 201/1/6
f 199/1/6 201/1/6 202/1/6
f 199/1/6 202/1/6 203/1/6
f 203/1/6 202/1/6 204/1/6
f 205/1/6 206/1/6 207/1/6
f 207/1/6 206/1/6 208/1/6
