# MagicaVoxel @ Ephtracy

# material
mtllib tabletop.mtl
usemtl palette

# normals
vn -1 0 0
vn 1 0 0
vn 0 0 1
vn 0 0 -1
vn 0 -1 0
vn 0 1 0

# texcoords
vt 0.537109 0.5
vt 0.974609 0.5
vt 0.986328 0.5

# verts
v -4.5 0 6.5
v -4.5 0 -6.5
v -4.5 9 6.5
v -4.5 9 -6.5
v -4.5 10 6.5
v -4.5 10 -6.5
v 2.5 1 5.5
v 2.5 1 0.5
v 2.5 1 -0.5
v 2.5 1 -5.5
v 2.5 4 2.5
v 2.5 4 1.5
v 2.5 4 -1.5
v 2.5 4 -2.5
v 2.5 5 2.5
v 2.5 5 1.5
v 2.5 5 -1.5
v 2.5 5 -2.5
v 2.5 8 5.5
v 2.5 8 0.5
v 2.5 8 -0.5
v 2.5 8 -5.5
v 2.5 9 5.5
v 2.5 9 -5.5
v -3.5 1 5.5
v -3.5 1 -5.5
v -3.5 4 5.5
v -3.5 4 -5.5
v -3.5 5 5.5
v -3.5 5 -5.5
v -3.5 9 5.5
v -3.5 9 -5.5
v 1.5 4 5.5
v 1.5 4 -5.5
v 1.5 5 5.5
v 1.5 5 -5.5
v 3.5 0 6.5
v 3.5 0 -6.5
v 3.5 1 5.5
v 3.5 1 0.5
v 3.5 1 -0.5
v 3.5 1 -5.5
v 3.5 4 2.5
v 3.5 4 1.5
v 3.5 4 -1.5
v 3.5 4 -2.5
v 3.5 5 2.5
v 3.5 5 1.5
v 3.5 5 -1.5
v 3.5 5 -2.5
v 3.5 8 5.5
v 3.5 8 0.5
v 3.5 8 -0.5
v 3.5 8 -5.5
v 3.5 9 6.5
v 3.5 9 -6.5
v 4.5 9 6.5
v 4.5 9 -6.5
v 4.5 10 6.5
v 4.5 10 -6.5
v -4.5 0 6.5
v -4.5 9 6.5
v -4.5 10 6.5
v 3.5 0 6.5
v 3.5 9 6.5
v 4.5 9 6.5
v 4.5 10 6.5
v -3.5 1 -5.5
v -3.5 4 -5.5
v -3.5 5 -5.5
v -3.5 9 -5.5
v 1.5 4 -5.5
v 1.5 5 -5.5
v 2.5 1 -5.5
v 2.5 8 -5.5
v 2.5 9 -5.5
v -3.5 1 5.5
v -3.5 4 5.5
v -3.5 5 5.5
v -3.5 9 5.5
v 1.5 4 5.5
v 1.5 5 5.5
v 2.5 1 5.5
v 2.5 8 5.5
v 2.5 9 5.5
v -4.5 0 -6.5
v -4.5 9 -6.5
v -4.5 10 -6.5
v 3.5 0 -6.5
v 3.5 9 -6.5
v 4.5 9 -6.5
v 4.5 10 -6.5
v -4.5 0 6.5
v 3.5 0 6.5
v -4.5 0 -6.5
v 3.5 0 -6.5
v -3.5 4 5.5
v 1.5 4 5.5
v -3.5 4 -5.5
v 1.5 4 -5.5
v 3.5 9 6.5
v 4.5 9 6.5
v -3.5 9 5.5
v 2.5 9 5.5
v -3.5 9 -5.5
v 2.5 9 -5.5
v 3.5 9 -6.5
v 4.5 9 -6.5
v -3.5 1 5.5
v 2.5 1 5.5
v 2.5 1 0.5
v 2.5 1 -0.5
v -3.5 1 -5.5
v 2.5 1 -5.5
v -3.5 5 5.5
v 1.5 5 5.5
v -3.5 5 -5.5
v 1.5 5 -5.5
v -4.5 10 6.5
v 4.5 10 6.5
v -4.5 10 -6.5
v 4.5 10 -6.5

# faces
f 3/1/1 2/1/1 1/1/1
f 4/1/1 2/1/1 3/1/1
f 5/2/1 4/2/1 3/2/1
f 6/2/1 4/2/1 5/2/1
f 11/2/1 8/2/1 7/2/1
f 12/2/1 8/2/1 11/2/1
f 13/2/1 10/2/1 9/2/1
f 14/2/1 10/2/1 13/2/1
f 15/2/1 11/2/1 7/2/1
f 15/3/1 12/3/1 11/3/1
f 16/2/1 8/2/1 12/2/1
f 16/3/1 12/3/1 15/3/1
f 17/3/1 14/3/1 13/3/1
f 17/2/1 13/2/1 9/2/1
f 18/2/1 10/2/1 14/2/1
f 18/3/1 14/3/1 17/3/1
f 19/2/1 15/2/1 7/2/1
f 19/2/1 16/2/1 15/2/1
f 20/1/1 9/1/1 8/1/1
f 20/2/1 16/2/1 19/2/1
f 20/2/1 8/2/1 16/2/1
f 21/2/1 17/2/1 9/2/1
f 21/1/1 9/1/1 20/1/1
f 21/2/1 18/2/1 17/2/1
f 22/2/1 10/2/1 18/2/1
f 22/2/1 18/2/1 21/2/1
f 23/1/1 21/1/1 20/1/1
f 23/1/1 20/1/1 19/1/1
f 23/1/1 22/1/1 21/1/1
f 24/1/1 22/1/1 23/1/1
f 25/1/2 26/1/2 27/1/2
f 27/1/2 26/1/2 28/1/2
f 29/1/2 30/1/2 31/1/2
f 31/1/2 30/1/2 32/1/2
f 33/1/2 34/1/2 35/1/2
f 35/1/2 34/1/2 36/1/2
f 37/1/2 38/1/2 39/1/2
f 39/1/2 38/1/2 40/1/2
f 40/1/2 38/1/2 41/1/2
f 41/1/2 38/1/2 42/1/2
f 39/2/2 40/2/2 43/2/2
f 43/2/2 40/2/2 44/2/2
f 41/2/2 42/2/2 45/2/2
f 45/2/2 42/2/2 46/2/2
f 39/2/2 43/2/2 47/2/2
f 43/3/2 44/3/2 47/3/2
f 44/2/2 40/2/2 48/2/2
f 47/3/2 44/3/2 48/3/2
f 45/3/2 46/3/2 49/3/2
f 41/2/2 45/2/2 49/2/2
f 46/2/2 42/2/2 50/2/2
f 49/3/2 46/3/2 50/3/2
f 37/1/2 39/1/2 51/1/2
f 39/2/2 47/2/2 51/2/2
f 47/2/2 48/2/2 51/2/2
f 40/1/2 41/1/2 52/1/2
f 51/2/2 48/2/2 52/2/2
f 48/2/2 40/2/2 52/2/2
f 49/2/2 50/2/2 53/2/2
f 52/1/2 41/1/2 53/1/2
f 41/2/2 49/2/2 53/2/2
f 50/2/2 42/2/2 54/2/2
f 53/2/2 50/2/2 54/2/2
f 42/1/2 38/1/2 54/1/2
f 52/1/2 53/1/2 55/1/2
f 51/1/2 52/1/2 55/1/2
f 53/1/2 54/1/2 55/1/2
f 37/1/2 51/1/2 55/1/2
f 54/1/2 38/1/2 56/1/2
f 55/1/2 54/1/2 56/1/2
f 57/2/2 58/2/2 59/2/2
f 59/2/2 58/2/2 60/2/2
f 64/1/3 62/1/3 61/1/3
f 65/2/3 63/2/3 62/2/3
f 65/1/3 62/1/3 64/1/3
f 66/2/3 63/2/3 65/2/3
f 67/2/3 63/2/3 66/2/3
f 72/1/3 69/1/3 68/1/3
f 73/1/3 71/1/3 70/1/3
f 74/1/3 72/1/3 68/1/3
f 74/1/3 73/1/3 72/1/3
f 75/1/3 71/1/3 73/1/3
f 75/1/3 73/1/3 74/1/3
f 76/1/3 71/1/3 75/1/3
f 77/1/4 78/1/4 81/1/4
f 79/1/4 80/1/4 82/1/4
f 77/1/4 81/1/4 83/1/4
f 81/1/4 82/1/4 83/1/4
f 82/1/4 80/1/4 84/1/4
f 83/1/4 82/1/4 84/1/4
f 84/1/4 80/1/4 85/1/4
f 86/1/4 87/1/4 89/1/4
f 87/2/4 88/2/4 90/2/4
f 89/1/4 87/1/4 90/1/4
f 90/2/4 88/2/4 91/2/4
f 91/2/4 88/2/4 92/2/4
f 95/1/5 94/1/5 93/1/5
f 96/1/5 94/1/5 95/1/5
f 99/1/5 98/1/5 97/1/5
f 100/1/5 98/1/5 99/1/5
f 105/2/5 104/2/5 103/2/5
f 106/2/5 104/2/5 105/2/5
f 107/2/5 102/2/5 101/2/5
f 108/2/5 102/2/5 107/2/5
f 109/1/6 110/1/6 111/1/6
f 109/1/6 111/1/6 112/1/6
f 109/1/6 112/1/6 113/1/6
f 113/1/6 112/1/6 114/1/6
f 115/1/6 116/1/6 117/1/6
f 117/1/6 116/1/6 118/1/6
f 119/2/6 120/2/6 121/2/6
f 121/2/6 120/2/6 122/2/6
