# MagicaVoxel @ Ephtracy

# material
mtllib chest of drawers.mtl
usemtl palette

# normals
vn -1 0 0
vn 1 0 0
vn 0 0 1
vn 0 0 -1
vn 0 -1 0
vn 0 1 0

# texcoords
vt 0.537109 0.5
vt 0.974609 0.5
vt 0.982422 0.5

# verts
v -9.5 0 4.5
v -9.5 0 -4.5
v -9.5 10 4.5
v -9.5 10 -4.5
v 8.5 0 4.5
v 8.5 0 3.5
v 8.5 1 3.5
v 8.5 3 3.5
v 8.5 4 3.5
v 8.5 6 3.5
v 8.5 7 3.5
v 8.5 9 4.5
v 8.5 9 3.5
v -8.5 0 4.5
v -8.5 0 3.5
v -8.5 1 3.5
v -8.5 3 3.5
v -8.5 4 3.5
v -8.5 6 3.5
v -8.5 7 3.5
v -8.5 9 4.5
v -8.5 9 3.5
v 9.5 0 4.5
v 9.5 0 -4.5
v 9.5 10 4.5
v 9.5 10 -4.5
v -9.5 0 4.5
v -9.5 10 4.5
v -8.5 0 4.5
v -8.5 9 4.5
v 8.5 0 4.5
v 8.5 9 4.5
v 9.5 0 4.5
v 9.5 10 4.5
v -8.5 0 3.5
v -8.5 1 3.5
v -8.5 3 3.5
v -8.5 4 3.5
v -8.5 6 3.5
v -8.5 7 3.5
v -8.5 9 3.5
v -6.5 1 3.5
v -6.5 2 3.5
v -6.5 4 3.5
v -6.5 5 3.5
v -6.5 7 3.5
v -6.5 8 3.5
v -4.5 1 3.5
v -4.5 2 3.5
v -4.5 4 3.5
v -4.5 5 3.5
v -4.5 7 3.5
v -4.5 8 3.5
v 4.5 1 3.5
v 4.5 2 3.5
v 4.5 4 3.5
v 4.5 5 3.5
v 4.5 7 3.5
v 4.5 8 3.5
v 6.5 1 3.5
v 6.5 2 3.5
v 6.5 4 3.5
v 6.5 5 3.5
v 6.5 7 3.5
v 6.5 8 3.5
v 8.5 0 3.5
v 8.5 1 3.5
v 8.5 3 3.5
v 8.5 4 3.5
v 8.5 6 3.5
v 8.5 7 3.5
v 8.5 9 3.5
v -9.5 0 -4.5
v -9.5 10 -4.5
v 9.5 0 -4.5
v 9.5 10 -4.5
v -9.5 0 4.5
v -8.5 0 4.5
v 8.5 0 4.5
v 9.5 0 4.5
v -8.5 0 3.5
v 8.5 0 3.5
v -9.5 0 -4.5
v 9.5 0 -4.5
v -8.5 9 4.5
v 8.5 9 4.5
v -8.5 9 3.5
v 8.5 9 3.5
v -9.5 10 4.5
v 9.5 10 4.5
v -9.5 10 -4.5
v 9.5 10 -4.5

# faces
f 3/1/1 2/1/1 1/1/1
f 4/1/1 2/1/1 3/1/1
f 7/1/1 6/1/1 5/1/1
f 8/1/1 7/1/1 5/1/1
f 9/1/1 8/1/1 5/1/1
f 10/1/1 9/1/1 5/1/1
f 11/1/1 10/1/1 5/1/1
f 12/1/1 11/1/1 5/1/1
f 13/1/1 11/1/1 12/1/1
f 14/1/2 15/1/2 16/1/2
f 14/1/2 16/1/2 17/1/2
f 14/1/2 17/1/2 18/1/2
f 14/1/2 18/1/2 19/1/2
f 14/1/2 19/1/2 20/1/2
f 14/1/2 20/1/2 21/1/2
f 21/1/2 20/1/2 22/1/2
f 23/1/2 24/1/2 25/1/2
f 25/1/2 24/1/2 26/1/2
f 29/1/3 28/1/3 27/1/3
f 30/1/3 28/1/3 29/1/3
f 32/1/3 28/1/3 30/1/3
f 33/1/3 32/1/3 31/1/3
f 34/1/3 28/1/3 32/1/3
f 34/1/3 32/1/3 33/1/3
f 42/1/3 36/1/3 35/1/3
f 42/2/3 37/2/3 36/2/3
f 43/2/3 37/2/3 42/2/3
f 44/1/3 38/1/3 37/1/3
f 44/2/3 39/2/3 38/2/3
f 45/2/3 39/2/3 44/2/3
f 46/2/3 41/2/3 40/2/3
f 46/1/3 40/1/3 39/1/3
f 47/2/3 41/2/3 46/2/3
f 48/3/3 43/3/3 42/3/3
f 48/1/3 42/1/3 35/1/3
f 49/2/3 37/2/3 43/2/3
f 49/3/3 43/3/3 48/3/3
f 50/3/3 45/3/3 44/3/3
f 50/1/3 44/1/3 37/1/3
f 51/2/3 39/2/3 45/2/3
f 51/3/3 45/3/3 50/3/3
f 52/3/3 47/3/3 46/3/3
f 52/1/3 46/1/3 39/1/3
f 53/2/3 41/2/3 47/2/3
f 53/3/3 47/3/3 52/3/3
f 54/1/3 48/1/3 35/1/3
f 54/2/3 49/2/3 48/2/3
f 55/2/3 37/2/3 49/2/3
f 55/2/3 49/2/3 54/2/3
f 56/1/3 50/1/3 37/1/3
f 56/2/3 51/2/3 50/2/3
f 57/2/3 39/2/3 51/2/3
f 57/2/3 51/2/3 56/2/3
f 58/1/3 52/1/3 39/1/3
f 58/2/3 53/2/3 52/2/3
f 59/2/3 41/2/3 53/2/3
f 59/2/3 53/2/3 58/2/3
f 60/1/3 54/1/3 35/1/3
f 60/3/3 55/3/3 54/3/3
f 61/2/3 37/2/3 55/2/3
f 61/3/3 55/3/3 60/3/3
f 62/1/3 56/1/3 37/1/3
f 62/3/3 57/3/3 56/3/3
f 63/2/3 39/2/3 57/2/3
f 63/3/3 57/3/3 62/3/3
f 64/1/3 58/1/3 39/1/3
f 64/3/3 59/3/3 58/3/3
f 65/2/3 41/2/3 59/2/3
f 65/3/3 59/3/3 64/3/3
f 66/1/3 60/1/3 35/1/3
f 67/2/3 61/2/3 60/2/3
f 67/1/3 60/1/3 66/1/3
f 68/1/3 62/1/3 37/1/3
f 68/2/3 61/2/3 67/2/3
f 68/2/3 37/2/3 61/2/3
f 69/2/3 63/2/3 62/2/3
f 69/1/3 62/1/3 68/1/3
f 70/1/3 64/1/3 39/1/3
f 70/2/3 63/2/3 69/2/3
f 70/2/3 39/2/3 63/2/3
f 71/2/3 65/2/3 64/2/3
f 71/1/3 64/1/3 70/1/3
f 72/2/3 41/2/3 65/2/3
f 72/2/3 65/2/3 71/2/3
f 73/1/4 74/1/4 75/1/4
f 75/1/4 74/1/4 76/1/4
f 81/1/5 78/1/5 77/1/5
f 82/1/5 80/1/5 79/1/5
f 83/1/5 81/1/5 77/1/5
f 83/1/5 82/1/5 81/1/5
f 84/1/5 80/1/5 82/1/5
f 84/1/5 82/1/5 83/1/5
f 87/1/5 86/1/5 85/1/5
f 88/1/5 86/1/5 87/1/5
f 89/1/6 90/1/6 91/1/6
f 91/1/6 90/1/6 92/1/6
